<?xml version="1.0" encoding="utf-8"?>
<!-- Generator: Adobe Illustrator 28.2.0, SVG Export Plug-In . SVG Version: 6.00 Build 0)  -->
<svg version="1.1" id="Outline" xmlns="http://www.w3.org/2000/svg" xmlns:xlink="http://www.w3.org/1999/xlink" x="0px" y="0px"
	 viewBox="0 0 64 64" enable-background="new 0 0 64 64" xml:space="preserve">
<g>
	<path d="M28.99981,23.99707c0-0.55273-0.44727-1-1-1s-1,0.44727-1,1c0,4.05054-1.63745,6.97339-4.43634,8.26227l0.3045-1.00641
		c1.42188-4.75781,1.4541-9.78223,0.09277-14.53125c-0.15137-0.53125-0.70898-0.83594-1.23633-0.68555
		c-0.53125,0.15137-0.83789,0.70508-0.68555,1.23633c1.25488,4.38086,1.22461,9.01758-0.08594,13.4043l-0.67432,2.22809
		c-0.41248,0.05475-0.83527,0.09222-1.27881,0.09222c-0.46735,0-0.91205-0.04065-1.34485-0.10138l-0.33679-1.13593
		c-1.53125-5.11719-1.72949-10.56543-0.57129-15.76074l0.1709-0.79102c0.11621-0.53906-0.22656-1.07129-0.7666-1.18848
		c-0.52832-0.11914-1.07129,0.22656-1.18848,0.7666l-0.16895,0.7832c-1.22382,5.48834-1.0199,11.24695,0.58051,16.6601
		c-2.76074-1.30353-4.37445-4.21204-4.37445-8.23236c0-6.41113,3.95508-15,8-15c3.38086,0,6.51855,5.69043,7.59863,11.19238
		c0.10645,0.54199,0.63184,0.89355,1.17383,0.78906c0.54199-0.10645,0.89551-0.63184,0.78906-1.17383
		c-1.25-6.36426-4.93457-12.80762-9.56152-12.80762c-5.80078,0-10,10.1543-10,17c0,6.68262,3.9248,11,10,11
		S28.99981,30.67969,28.99981,23.99707z"/>
	<path d="M51.60625,31.18262c-3.79395-2.1123-9.31348,1.20312-12.88477,4.68848c-0.39551,0.38574-0.40332,1.01953-0.01758,1.41406
		c0.3877,0.39648,1.01953,0.40234,1.41406,0.01758c3.92773-3.83398,8.24707-5.63281,10.51367-4.37402
		c1.62207,0.90918,2.48047,3.4668,2.35645,7.0166c-0.12012,3.41016-1.15039,7.23535-2.69141,9.98438
		c-1.41504,2.53711-3.2998,4.19922-5.44922,4.80762c-0.79498,0.22455-1.61365,0.29626-2.43933,0.23438l0.74695-0.7207
		c3.5625-3.45996,6.04102-7.83105,7.16992-12.64062c0.12598-0.53809-0.20703-1.07617-0.74512-1.20215
		c-0.53809-0.12305-1.0752,0.20605-1.20215,0.74512c-1.04102,4.4375-3.3291,8.46973-6.61328,11.66016l-1.67352,1.61475
		c-0.38983-0.15344-0.7785-0.3288-1.16339-0.54443c-0.40485-0.22583-0.77484-0.47778-1.1239-0.7439l0.25964-1.15356
		c1.15918-5.21484,3.64355-10.06738,7.19043-14.04004l0.5332-0.60645c0.36426-0.41504,0.32422-1.04688-0.09082-1.41113
		c-0.41211-0.36328-1.04688-0.32422-1.41113,0.09082l-0.52832,0.60059c-3.74268,4.19171-6.37329,9.31476-7.61652,14.81641
		c-0.48334-0.68134-0.84613-1.42786-1.06317-2.23535c-0.57324-2.12988-0.13867-4.57715,1.25586-7.07617
		c0.36328-0.65039,0.7832-1.2959,1.24902-1.91992c0.33008-0.44238,0.23926-1.06836-0.2041-1.39941
		c-0.44043-0.33008-1.06934-0.23926-1.39941,0.2041c-0.51758,0.69336-0.98535,1.41309-1.3916,2.13965
		c-1.65332,2.96484-2.15234,5.92871-1.44141,8.57129c0.65918,2.44922,2.36621,4.54883,4.80664,5.9082
		c1.62793,0.91211,3.31738,1.37402,4.98633,1.37402c0.82617,0,1.64746-0.11328,2.45312-0.3418
		c2.67285-0.75586,4.97266-2.74707,6.65039-5.75488c1.68652-3.00879,2.81445-7.18164,2.94531-10.89062
		C55.14043,35.62695,53.94122,32.49023,51.60625,31.18262z"/>
	<path d="M36.23809,18.15137c1.55664-0.82227,3.44238-0.54102,4.69043,0.7002c1.25,1.24219,1.54199,3.125,0.72754,4.68652
		c-0.63477,1.21582-0.43652,2.65332,0.49121,3.5752c0,0,0.02734,0.02734,0.0293,0.0293
		c0.56735,0.56344,1.31339,0.8691,2.09654,0.86914c1.08179,0.00005,2.10847-0.59955,2.62612-1.55176
		c2.10449-3.87402,1.38867-8.75195-1.74023-11.86328c-3.12888-3.11033-8.01067-3.79882-11.87492-1.67094
		c-1.74498,0.96089-2.0197,3.36906-0.62704,4.75395C33.5877,18.60449,35.02422,18.79297,36.23809,18.15137z M34.03976,16.23414
		c-0.44949-0.45251-0.36002-1.24207,0.21005-1.55641c3.08691-1.70215,6.99512-1.15332,9.49902,1.33691
		c2.50388,2.48923,3.07616,6.39153,1.39263,9.49014c-0.29818,0.54882-1.09163,0.68088-1.55474,0.21982l-0.02734-0.02734
		c-0.30957-0.30762-0.36035-0.79199-0.12988-1.23438c1.22168-2.3418,0.7832-5.16699-1.09082-7.0293
		c-1.1582-1.15137-2.67969-1.75195-4.22363-1.75195c-0.95605,0-1.91992,0.23047-2.81267,0.70224
		c-0.39694,0.20889-0.88664,0.19661-1.22955-0.11797C34.06149,16.25552,34.05047,16.24493,34.03976,16.23414z"/>
	<path d="M15.53594,38.23438c-1.72529,0.94999-2.00198,3.38844-0.62793,4.75293c0.92773,0.9248,2.36914,1.11719,3.58008,0.47266
		c1.55762-0.82324,3.44238-0.54199,4.69043,0.70117c1.25,1.24023,1.54297,3.12402,0.72852,4.68555
		c-0.63477,1.21582-0.43652,2.65332,0.49121,3.5752c0,0,0.02734,0.02734,0.0293,0.0293
		c0.56736,0.56346,1.31343,0.86912,2.09661,0.86914c1.08749,0.00003,2.10615-0.59542,2.62605-1.55176
		c2.10449-3.875,1.3877-8.75293-1.74121-11.86328C24.28012,36.793,19.39738,36.10841,15.53594,38.23438z M27.39239,50.81348
		c-0.30582,0.56234-1.10632,0.6661-1.55468,0.21972l-0.02734-0.02734c-0.30957-0.30762-0.36035-0.79199-0.12988-1.23438
		c1.22168-2.34277,0.78223-5.16797-1.0918-7.0293c-1.15723-1.15137-2.67871-1.75195-4.22363-1.75195
		c-0.95492,0-1.91961,0.22942-2.81207,0.70192c-0.71834,0.38031-1.66375-0.13418-1.5434-0.99001
		c0.04297-0.30664,0.22266-0.56738,0.49121-0.71582c3.08691-1.70215,6.99414-1.15234,9.49805,1.33691
		C28.50264,43.8124,29.07594,47.71455,27.39239,50.81348z"/>
</g>
</svg>
