<?xml version="1.0" encoding="UTF-8"?>
<svg xmlns="http://www.w3.org/2000/svg" version="1.1" viewBox="0 0 48 48">
  <!-- Generator: Adobe Illustrator 28.7.1, SVG Export Plug-In . SVG Version: 1.2.0 Build 142)  -->
  <g>
    <g id="Outline">
      <g>
        <path d="M40,11h2c.55225,0,1-.44727,1-1s-.44775-1-1-1h-2c-.55225,0-1,.44727-1,1s.44775,1,1,1Z"/>
        <path d="M38,11c-.55225,0-1,.44727-1,1v2c0,.55273.44775,1,1,1s1-.44727,1-1v-2c0-.55273-.44775-1-1-1Z"/>
        <path d="M34,11h2c.55225,0,1-.44727,1-1s-.44775-1-1-1h-2c-.55225,0-1,.44727-1,1s.44775,1,1,1Z"/>
        <path d="M38,9c.55225,0,1-.44727,1-1v-2c0-.55273-.44775-1-1-1s-1,.44727-1,1v2c0,.55273.44775,1,1,1Z"/>
        <path d="M6,11h2c.55225,0,1-.44727,1-1s-.44775-1-1-1h-2c-.55225,0-1,.44727-1,1s.44775,1,1,1Z"/>
        <path d="M10,11c-.55225,0-1,.44727-1,1v2c0,.55273.44775,1,1,1s1-.44727,1-1v-2c0-.55273-.44775-1-1-1Z"/>
        <path d="M12,11h2c.55225,0,1-.44727,1-1s-.44775-1-1-1h-2c-.55225,0-1,.44727-1,1s.44775,1,1,1Z"/>
        <path d="M10,9c.55225,0,1-.44727,1-1v-2c0-.55273-.44775-1-1-1s-1,.44727-1,1v2c0,.55273.44775,1,1,1Z"/>
        <path d="M42,41h-5.01001c2.44-.98004,4.01001-2.32001,4.01001-4,0-2.54004-3.57001-4.29999-8.35999-5.22003,3.13-1.01001,5.35999-2.62,5.35999-4.77997,0-2.56-3.12-4.34003-7.17999-5.27002,2.56-1.08002,4.17999-2.77997,4.17999-4.72998,0-3.35999-4.83002-6-11-6s-11,2.64001-11,6c0,1.95001,1.62,3.64996,4.17999,4.72998-4.06.92999-7.17999,2.71002-7.17999,5.27002,0,2.15997,2.22998,3.76996,5.35999,4.77997-4.78998.92004-8.35999,2.67999-8.35999,5.22003,0,1.67999,1.57001,3.01996,4.01001,4h-5.01001c-.54999,0-1,.45001-1,1s.45001,1,1,1h36c.54999,0,1-.45001,1-1s-.45001-1-1-1ZM15,17c0-1.89001,3.70001-4,9-4s9,2.10999,9,4-3.70001,4-9,4-9-2.10999-9-4ZM12,27c0-1.67004,4.57001-4,12-4s12,2.32996,12,4-4.57001,4-12,4-12-2.33002-12-4ZM9,37c0-1.63,5.84003-4,15-4s15,2.37,15,4-5.84003,4-15,4-15-2.37-15-4Z"/>
      </g>
    </g>
  </g>
</svg>