<?xml version="1.0" encoding="UTF-8"?>
<svg xmlns="http://www.w3.org/2000/svg" version="1.1" viewBox="0 0 48 48">
  <!-- Generator: Adobe Illustrator 28.7.1, SVG Export Plug-In . SVG Version: 1.2.0 Build 142)  -->
  <g>
    <g id="Outline">
      <g>
        <path d="M38.97656,30.49316c.01562-.16309.02344-.32812.02344-.49316,0-2.75684-2.24316-5-5-5-.41406,0-.82324.05078-1.21973.15039-.83789-3.53906-4.0293-6.15039-7.78027-6.15039-3.68555,0-6.85449,2.52051-7.73926,6.00488-.08594-.00293-.17285-.00488-.26074-.00488-3.85938,0-7,3.14062-7,7,0,.33691.02441.6709.07227,1h-.07227c-1.32324,0-2.57812.51758-3.54199,1.46777-.94043.9541-1.45801,2.20898-1.45801,3.53223,0,2.75684,2.24316,5,5,5h26.5c1.73828,0,3.37109-.67578,4.59668-1.90332,1.22754-1.22559,1.90332-2.8584,1.90332-4.59668,0-2.67383-1.61426-5.02441-4.02344-6.00684ZM39.68262,39.68262c-.84863.84961-1.97949,1.31738-3.18262,1.31738H10c-1.6543,0-3-1.3457-3-3,0-.79492.31348-1.55078.87207-2.11816.57715-.56836,1.33301-.88184,2.12793-.88184h1.34961c.32617,0,.63184-.15918.81934-.42676s.23242-.60938.12012-.91602c-.19141-.52637-.28906-1.08398-.28906-1.65723,0-2.75684,2.24316-5,5-5,.31934,0,.6123.02637.87012.0791.27441.05664.55762-.00488.7832-.16699.22656-.16309.375-.41211.40917-.68848.37208-2.97754,2.92481-5.22363,5.93751-5.22363,3.15625,0,5.78418,2.46582,5.98242,5.6123.02148.34766.22266.65918.53027.82129.30859.16504.67773.15332.97754-.02344.45312-.26855.97461-.41016,1.50977-.41016,1.6543,0,3,1.3457,3,3,0,.30176-.04297.59863-.12793.88379-.07812.2627-.0459.5459.08984.7832.13672.2373.36328.40918.62988.47363,2.00684.49316,3.4082,2.28613,3.4082,4.35938,0,1.20312-.46777,2.33398-1.31738,3.18262Z"/>
        <circle cx="37" cy="11" r="1"/>
        <path d="M40,12h2c.55273,0,1-.44727,1-1s-.44727-1-1-1h-2c-.55273,0-1,.44727-1,1s.44727,1,1,1Z"/>
        <path d="M37,17c.55273,0,1-.44727,1-1v-2c0-.55273-.44727-1-1-1s-1,.44727-1,1v2c0,.55273.44727,1,1,1Z"/>
        <path d="M32,12h2c.55273,0,1-.44727,1-1s-.44727-1-1-1h-2c-.55273,0-1,.44727-1,1s.44727,1,1,1Z"/>
        <path d="M37,9c.55273,0,1-.44727,1-1v-2c0-.55273-.44727-1-1-1s-1,.44727-1,1v2c0,.55273.44727,1,1,1Z"/>
        <path d="M6,18.65723c2.56836,0,4.65723,2.08887,4.65723,4.65625,0,.55273.44727,1,1,1s1-.44727,1-1c0-2.56738,2.08887-4.65625,4.65625-4.65625.55273,0,1-.44727,1-1s-.44727-1-1-1c-2.56738,0-4.65625-2.08887-4.65625-4.65723,0-.55273-.44727-1-1-1s-1,.44727-1,1c0,2.56836-2.08887,4.65723-4.65723,4.65723-.55273,0-1,.44727-1,1s.44727,1,1,1ZM11.65723,15.50586c.54199.87207,1.2793,1.60938,2.15039,2.15137-.87109.54199-1.6084,1.2793-2.15039,2.15039-.54199-.87109-1.2793-1.6084-2.15137-2.15039.87207-.54199,1.60938-1.2793,2.15137-2.15137Z"/>
        <path d="M16,12.65723c2.56836,0,4.65723,2.08887,4.65723,4.65625,0,.55273.44727,1,1,1s1-.44727,1-1c0-2.56738,2.08887-4.65625,4.65625-4.65625.55273,0,1-.44727,1-1s-.44727-1-1-1c-2.56738,0-4.65625-2.08887-4.65625-4.65723,0-.55273-.44727-1-1-1s-1,.44727-1,1c0,2.56836-2.08887,4.65723-4.65723,4.65723-.55273,0-1,.44727-1,1s.44727,1,1,1ZM21.65723,9.50586c.54199.87207,1.2793,1.60938,2.15039,2.15137-.87109.54199-1.6084,1.2793-2.15039,2.15039-.54199-.87109-1.2793-1.6084-2.15137-2.15039.87207-.54199,1.60938-1.2793,2.15137-2.15137Z"/>
        <path d="M37.11426,34.08301c-.53516-.13281-1.07812.19727-1.20996.7334-.13086.53711.19727,1.07812.7334,1.20996.21387.05176.3623.24707.3623.47363,0,.26172-.23828.5-.5.5-.55273,0-1,.44727-1,1s.44727,1,1,1c1.35547,0,2.5-1.14453,2.5-2.5,0-1.15137-.77539-2.14453-1.88574-2.41699Z"/>
        <path d="M25,23c-2.00586,0-3.70508,1.49219-3.95312,3.47168-.06836.54785.31934,1.04785.86816,1.11621.55371.06641,1.04785-.32031,1.11621-.86816.12305-.98047.96973-1.71973,1.96875-1.71973,1.05078,0,1.9248.81836,1.99023,1.86328.0332.53027.47363.9375.99707.9375.02148,0,.04199-.00098.06348-.00195.55176-.03418.96973-.50977.93555-1.06055-.13184-2.09668-1.88281-3.73828-3.98633-3.73828Z"/>
        <path d="M17,29c-1.6543,0-3,1.3457-3,3,0,.55273.44727,1,1,1s1-.44727,1-1c0-.55176.44824-1,1-1,.55273,0,1-.44727,1-1s-.44727-1-1-1Z"/>
      </g>
    </g>
  </g>
</svg>