<?xml version="1.0" encoding="UTF-8"?>
<svg xmlns="http://www.w3.org/2000/svg" version="1.1" viewBox="0 0 48 48">
  <!-- Generator: Adobe Illustrator 28.7.1, SVG Export Plug-In . SVG Version: 1.2.0 Build 142)  -->
  <g>
    <g id="Outline">
      <g>
        <path d="M41.10449,20.61035l-11.50195-1.20947-4.68555-10.79883c-.1582-.36572-.51855-.60205-.91699-.60205s-.75879.23633-.91699.60205l-4.68555,10.79883-11.50195,1.20947c-.3916.04102-.72266.30811-.8457.68164-.12305.37402-.01562.78516.27539,1.05078l8.62207,7.89014-2.43262,11.56104c-.08203.38818.07324.78809.39551,1.01904.32227.22949.75.24951,1.09277.04736l9.99707-5.91797s9.99707,5.91797,9.99714,5.91801c.34024.20054.77058.18345,1.0927-.04741.32227-.23096.47754-.63086.39551-1.01904l-2.43262-11.56104,8.62207-7.89014c.29102-.26562.39844-.67676.27539-1.05078-.12305-.37354-.4541-.64062-.8457-.68164ZM31.28223,29.14258c-.26074.23877-.37695.59766-.30371.94385l2.08203,9.89502-8.55078-5.06152c-.15723-.09326-.33398-.13965-.50977-.13965s-.35254.04639-.50977.13965l-8.55078,5.06152,2.08203-9.89502c.07324-.34619-.04297-.70508-.30371-.94385l-7.40332-6.77539,9.87207-1.03809c.3584-.0376.66895-.26562.8125-.59668l4.00098-9.22021,4.00098,9.22021c.14355.33105.4541.55908.8125.59668l9.87207,1.03809-7.40332,6.77539Z"/>
        <path d="M24.91699,18.65137c-.1582-.36572-.51855-.60205-.91699-.60205s-.75879.23633-.91699.60205l-1.94531,4.4834-4.98535.52441c-.3916.0415-.72266.30811-.8457.68164-.12305.37402-.01562.78516.27539,1.05078l3.74902,3.43115-1.03027,4.89795c-.08203.3877.07324.7876.39648,1.01855.32129.22949.74805.24902,1.0918.04736l4.21094-2.49268,4.2109,2.49265c.31435.18608.77317.18131,1.09183-.04734.32324-.23096.47852-.63086.39648-1.01855l-1.03027-4.89795,3.74902-3.43115c.29102-.26562.39844-.67676.27539-1.05078-.12305-.37354-.4541-.64014-.8457-.68164l-4.98535-.52441-1.94531-4.4834ZM26.89844,27.73242c-.26074.23877-.37695.59766-.30371.94336l.67969,3.23242-2.76465-1.63672c-.15723-.09326-.33398-.13965-.50977-.13965s-.35254.04639-.50977.13965l-2.76465,1.63672.67969-3.23242c.07324-.3457-.04297-.70459-.30371-.94336l-2.53125-2.31641,3.35645-.35303c.3584-.03809.66895-.26562.8125-.59668l1.26074-2.90479,1.26074,2.90479c.14355.33105.4541.55859.8125.59668l3.35645.35303-2.53125,2.31641Z"/>
        <path d="M8,12c.55273,0,1-.44775,1-1s-.44727-1-1-1h-2c-.55273,0-1,.44775-1,1s.44727,1,1,1h2Z"/>
        <path d="M11,9c.55273,0,1-.44775,1-1v-2c0-.55225-.44727-1-1-1s-1,.44775-1,1v2c0,.55225.44727,1,1,1Z"/>
        <path d="M14,12h2c.55273,0,1-.44775,1-1s-.44727-1-1-1h-2c-.55273,0-1,.44775-1,1s.44727,1,1,1Z"/>
        <path d="M11,17c.55273,0,1-.44775,1-1v-2c0-.55225-.44727-1-1-1s-1,.44775-1,1v2c0,.55225.44727,1,1,1Z"/>
        <circle cx="11" cy="11" r="1"/>
        <path d="M42,10h-2c-.55273,0-1,.44775-1,1s.44727,1,1,1h2c.55273,0,1-.44775,1-1s-.44727-1-1-1Z"/>
        <path d="M37,9c.55273,0,1-.44775,1-1v-2c0-.55225-.44727-1-1-1s-1,.44775-1,1v2c0,.55225.44727,1,1,1Z"/>
        <path d="M32,12h2c.55273,0,1-.44775,1-1s-.44727-1-1-1h-2c-.55273,0-1,.44775-1,1s.44727,1,1,1Z"/>
        <path d="M37,17c.55273,0,1-.44775,1-1v-2c0-.55225-.44727-1-1-1s-1,.44775-1,1v2c0,.55225.44727,1,1,1Z"/>
        <circle cx="37" cy="11" r="1"/>
      </g>
    </g>
  </g>
</svg>