<?xml version="1.0" encoding="utf-8"?>
<!-- Generator: Adobe Illustrator 28.2.0, SVG Export Plug-In . SVG Version: 6.00 Build 0)  -->
<svg version="1.1" id="Outline" xmlns="http://www.w3.org/2000/svg" xmlns:xlink="http://www.w3.org/1999/xlink" x="0px" y="0px"
	 viewBox="0 0 64 64" enable-background="new 0 0 64 64" xml:space="preserve">
<g>
	<path d="M24,47c0.55225,0,1-0.44727,1-1v-8c0-0.44043-0.28857-0.8291-0.71045-0.95703
		c-0.42041-0.12988-0.87695,0.03613-1.12158,0.40234L22,39.19727l-1.16797-1.75195c-0.24463-0.36621-0.7002-0.53223-1.12158-0.40234
		C19.28857,37.1709,19,37.55957,19,38v8c0,0.55273,0.44775,1,1,1s1-0.44727,1-1v-4.69727l0.16797,0.25195
		c0.37109,0.55664,1.29297,0.55664,1.66406,0L23,41.30273V46C23,46.55273,23.44775,47,24,47z"/>
	<path d="M27,38v8c0,0.55273,0.44775,1,1,1s1-0.44727,1-1v-8c0-0.55273-0.44775-1-1-1S27,37.44727,27,38z"/>
	<path d="M32,37c-0.55225,0-1,0.44727-1,1v8c0,0.55273,0.44775,1,1,1h4c0.55225,0,1-0.44727,1-1s-0.44775-1-1-1h-3v-7
		C33,37.44727,32.55225,37,32,37z"/>
	<path d="M44.71002,45.28998c0.38992,0.38998,0.38995,1.02993,0.0001,1.41989c-0.37682,0.37692-1.02727,0.3733-1.42014,0.0001
		L41,44.40997V46c0,0.54999-0.45001,1-1,1s-1-0.45001-1-1v-8c0-0.54999,0.45001-1,1-1s1,0.45001,1,1v1.58997l2.28998-2.29999
		c0.39001-0.39001,1.03003-0.39001,1.42004,0c0.38995,0.39001,0.38995,1.03003,0,1.41998L41.40997,42L44.71002,45.28998z"/>
	<path d="M48,38c0.54999,0,1-0.45001,1-1v-5.39001c0-2.59998-1.28998-5-3.45001-6.44C43.96002,24.09998,43,22.32001,43,20.39001V16
		c0-0.54999-0.45001-1-1-1h-1v-2h3c0.54999,0,1-0.45001,1-1V8c0-0.54999-0.45001-1-1-1H20c-0.54999,0-1,0.45001-1,1v4
		c0,0.54999,0.45001,1,1,1h3v2h-1c-0.54999,0-1,0.45001-1,1v4.39001c0,1.92999-0.96002,3.70996-2.54999,4.77997
		C16.28998,26.60999,15,29.01001,15,31.60999V54c0,1.64996,1.34998,3,3,3h28c1.65002,0,3-1.35004,3-3V41c0-0.54999-0.45001-1-1-1
		s-1,0.45001-1,1v8H17V35h6c0.54999,0,1-0.45001,1-1s-0.45001-1-1-1h-6v-1.39001c0-1.92999,0.96002-3.71002,2.54999-4.78003
		C21.71002,25.39001,23,22.98999,23,20.39001V17h18v3.39001c0,2.59998,1.28998,5,3.45001,6.43994
		C46.03998,27.89996,47,29.67999,47,31.60999V33H27c-0.54999,0-1,0.45001-1,1s0.45001,1,1,1h20v2C47,37.54999,47.45001,38,48,38z
		 M47,51v3c0,0.54999-0.45001,1-1,1H18c-0.54999,0-1-0.45001-1-1v-3H47z M39,15H25v-2h14V15z M21,11V9h22v2H21z"/>
	<path d="M36,26c0-1.94141-2.71191-5.0625-3.25586-5.66797c-0.37891-0.42188-1.10938-0.42188-1.48828,0
		C30.71191,20.9375,28,24.05859,28,26c0,2.20605,1.79443,4,4,4S36,28.20605,36,26z M30,26c0-0.6377,0.93994-2.12598,2-3.45215
		C33.06006,23.87402,34,25.3623,34,26c0,1.10254-0.89697,2-2,2S30,27.10254,30,26z"/>
</g>
</svg>
