<?xml version="1.0" encoding="utf-8"?>
<!-- Generator: Adobe Illustrator 28.2.0, SVG Export Plug-In . SVG Version: 6.00 Build 0)  -->
<svg version="1.1" id="Outline" xmlns="http://www.w3.org/2000/svg" xmlns:xlink="http://www.w3.org/1999/xlink" x="0px" y="0px"
	 viewBox="0 0 64 64" enable-background="new 0 0 64 64" xml:space="preserve">
<g>
	<path d="M17.09493,19.96487c0.54017,0.07459,1.05196-0.31394,1.12577-0.8555C18.54004,16.7666,20.56396,15,22.92822,15
		c0.55225,0,1-0.44775,1-1s-0.44775-1-1-1c-3.35938,0-6.23535,2.51025-6.68896,5.83887
		C16.16455,19.38623,16.54785,19.89014,17.09493,19.96487z"/>
	<path d="M55.08057,30.94531c-1.2124-2.24951-3.04346-4.06494-5.2915-5.24805c-1.60059-0.85107-2.97168-2.09521-3.96484-3.59863
		l-2.71045-4.1001c-0.30371-0.46094-0.9248-0.58691-1.38525-0.28271c-0.46094,0.3042-0.5874,0.9248-0.28271,1.38525l2.70996,4.1001
		c1.17676,1.78125,2.7998,3.25488,4.69824,4.26367c1.89844,0.99951,3.44287,2.53125,4.50586,4.49951
		C54.43262,33.95703,55,36.19629,55,38.43994c0,5.03809-2.74951,9.65137-7.1748,12.04004
		c-4.33392,2.33875-9.60095,2.13452-13.72919-0.44891c2.05792-2.19574,3.43201-4.896,3.96796-7.85284
		c0.09863-0.54346-0.26221-1.06348-0.80566-1.16211c-0.54346-0.10107-1.06396,0.26172-1.16211,0.80566
		c-0.49365,2.72266-1.79492,5.20215-3.76318,7.17139C29.74854,51.57715,26.31689,53,22.66992,53C15.13232,53,9,46.86768,9,39.25977
		c0-2.15381,0.62988-4.2373,1.82324-6.02588l0.15869-0.23926c1.08496-1.62744,1.77393-3.44287,2.04883-5.3999l1.22998-9.02881
		c0.28613-2.09033,1.32275-4.01318,2.9165-5.41211C18.77002,11.76465,20.81299,11,22.93018,11
		c4.55225,0,8.29834,3.42285,8.71387,7.96045l0.75,8.29053c0.19482,2.13135,0.92529,4.2002,2.1123,5.98145
		c0.96924,1.46289,1.57764,3.14795,1.75879,4.87207c0.05811,0.5498,0.55322,0.94287,1.09912,0.89014
		c0.54932-0.05762,0.94775-0.5498,0.89014-1.09912c-0.21484-2.04297-0.93457-4.0376-2.08252-5.77002
		c-1.00391-1.50684-1.62158-3.25537-1.78564-5.05566l-0.75049-8.29102c-0.22443-2.44971-1.23993-4.63373-2.78137-6.31366
		c3.14353-0.52922,6.34522,0.68865,8.35103,3.31198c0.32767,0.42855,0.97551,0.51372,1.40202,0.18723
		c0.43848-0.33545,0.52246-0.96289,0.18701-1.40186c-2.79309-3.65247-7.47473-5.09131-11.80005-3.69427
		C27.26624,9.69031,25.18164,9,22.93018,9c-2.60059,0-5.11035,0.93994-7.06982,2.64844
		c-1.95752,1.71875-3.22949,4.0791-3.58105,6.64697L11.0498,27.3208c-0.23242,1.65332-0.81494,3.18896-1.73291,4.56543
		L9.1582,32.12549C7.74609,34.24268,7,36.70947,7,39.33008C7,47.9707,14.0293,55,22.66992,55
		c3.66583,0,7.14124-1.25452,9.93854-3.55975c2.61884,1.76166,5.67072,2.66962,8.74115,2.66962
		c2.54736,0,5.10303-0.61719,7.42529-1.87012C53.84814,49.50195,57,44.21387,57,38.43994
		C57,35.8667,56.3501,33.29932,55.08057,30.94531z"/>
	<path d="M46.40145,48.83586c0.16021,0.00154,0.32296-0.03524,0.47403-0.11662C50.65332,46.68066,53,42.7417,53,38.43994
		c0-0.55225-0.44775-1-1-1s-1,0.44775-1,1c0,3.56583-1.94424,6.82992-5.07448,8.51941
		C45.03361,47.44074,45.39133,48.8261,46.40145,48.83586z"/>
	<path d="M22.6665,51c5.51416,0,10-5.3833,10-12s-4.48584-12-10-12s-10,5.3833-10,12S17.15234,51,22.6665,51z M22.6665,29
		c4.41113,0,8,4.48584,8,10s-3.58887,10-8,10s-8-4.48584-8-10S18.25537,29,22.6665,29z"/>
</g>
</svg>
