<?xml version="1.0" encoding="utf-8"?>
<!-- Generator: Adobe Illustrator 28.2.0, SVG Export Plug-In . SVG Version: 6.00 Build 0)  -->
<svg version="1.1" id="Outline" xmlns="http://www.w3.org/2000/svg" xmlns:xlink="http://www.w3.org/1999/xlink" x="0px" y="0px"
	 viewBox="0 0 64 64" enable-background="new 0 0 64 64" xml:space="preserve">
<g>
	<path d="M38,38.96469c0.55273,0,1-0.44727,1-1c0-3.58984-1.36133-7.00586-3.83398-9.61719
		c-0.38086-0.40137-1.01367-0.41699-1.41406-0.03906c-0.40137,0.37988-0.41797,1.0127-0.03906,1.41406
		C35.83301,31.96078,37,34.88852,37,37.96469C37,38.51743,37.44727,38.96469,38,38.96469z"/>
	<path d="M56,43.035H42.27002C42.75,41.405,43,39.70499,43,37.965c0-9.59003-7.53998-17.42999-17-17.95001V18.035h1
		c3.85999,0,7-3.14001,7-7v-2c0-0.54999-0.45001-1-1-1h-2c-3.85999,0-7,3.14001-7,7v4.96997
		c-3.96997,0.23004-7.75,1.73999-10.76001,4.35004c-0.40997,0.35999-0.45996,0.98999-0.08997,1.40997
		c0.35999,0.41003,0.98999,0.46002,1.40997,0.09998c2.63-2.29999,5.96002-3.63995,9.44-3.85999V22.965c0,0.54999,0.45001,1,1,1
		s1-0.45001,1-1v-0.95001C34.35999,22.535,41,29.47501,41,37.965c0,1.75-0.28998,3.45001-0.84003,5.07001H34
		c-0.54999,0-1,0.45001-1,1c0,2.37,0.70001,4.58997,1.90002,6.46997C32.08002,52.73502,28.60999,53.965,25,53.965
		c-8.82001,0-16-7.17999-16-16c0-3.38,1.03998-6.60004,3-9.33002c0.32001-0.44,0.21997-1.07001-0.21997-1.39001
		c-0.45001-0.31995-1.08002-0.21997-1.40002,0.22003C8.16998,30.535,7,34.16501,7,37.965c0,9.91998,8.08002,18,18,18
		c4.04999,0,7.95001-1.38,11.12-3.87c1.71002,1.89001,4.03003,3.25,6.70001,3.73999c0.54999,0.10999,1.06-0.26001,1.15997-0.79999
		c0.10004-0.54004-0.26001-1.06-0.79999-1.16003c-4.40997-0.81-7.69-4.44995-8.13-8.83997H37.06
		c0.14001,1.07001,0.48999,2.07996,1.02002,2.98999C39.46002,50.41501,42.03998,52.035,45,52.035c4.07001,0,7.44-3.06,7.94-7
		h2.01001c-0.44,4.39001-3.72003,8.02997-8.13,8.83997c-0.53996,0.10003-0.9,0.61996-0.8,1.15998
		c0.08704,0.47002,0.65311,0.96917,1.15998,0.80004C52.87,54.79501,57,49.82498,57,44.035C57,43.48502,56.54999,43.035,56,43.035z
		 M26,15.035c0-2.76001,2.23999-5,5-5h1v1c0,2.76001-2.23999,5-5,5h-1V15.035z M39.09003,45.035h3.5l-2.48004,2.46997
		C39.59998,46.785,39.23999,45.94498,39.09003,45.035z M45,50.035c-1.28998,0-2.48999-0.42004-3.46997-1.10999L45,45.44498
		l3.46997,3.48004C47.48999,49.61496,46.28998,50.035,45,50.035z M49.89001,47.50497L47.40997,45.035h3.5
		C50.76001,45.94498,50.40002,46.785,49.89001,47.50497z"/>
	<circle cx="13" cy="35.035" r="1"/>
	<circle cx="13" cy="39.035" r="1"/>
	<circle cx="17" cy="36.035" r="1"/>
	<circle cx="17" cy="40.035" r="1"/>
	<circle cx="14" cy="43.035" r="1"/>
	<circle cx="19" cy="44.035" r="1"/>
	<circle cx="21" cy="40.035" r="1"/>
</g>
</svg>
