<?xml version="1.0" encoding="UTF-8"?>
<svg xmlns="http://www.w3.org/2000/svg" version="1.1" viewBox="0 0 48 48">
  <!-- Generator: Adobe Illustrator 28.7.1, SVG Export Plug-In . SVG Version: 1.2.0 Build 142)  -->
  <g>
    <g id="Outline">
      <g>
        <path d="M42.52002,33.14996l-6.95001-4.25-2.97003-5.94c0-.00995-.00995-.00995-.00995-.00995l-4.59003-9.19v-2.76001h5c.34998,0,.66998-.17999.84998-.47003.18005-.29999.20001-.66998.04004-.97998l-.77002-1.54999.77002-1.54999c.15997-.31.14001-.68005-.04004-.98004-.17999-.28998-.5-.46997-.84998-.46997h-6c-.54999,0-1,.45001-1,1v7.76001l-4.59003,9.17999c0,.01001-.00995.01001-.00995.01996l-2.90002,5.80005-2.60999-5.21002c-.34003-.66998-1.44-.66998-1.78003,0l-9,18c-.15997.31-.14001.67999.04004.97998.17999.29004.5.47003.84998.47003h36c.54999,0,1-.45001,1-1v-8c0-.35004-.17999-.67004-.47998-.85004ZM28,7h3.38l-.27002.54999c-.14996.27997-.14996.62,0,.90002l.27002.54999h-3.38v-2ZM27,16.23999l3.45001,6.90002-1.45001,1.44995-1.28998-1.29999c-.39001-.39001-1.03003-.39001-1.42004,0l-1.28998,1.29999-1.45001-1.44995,3.45001-6.90002ZM7.62,41l7.38-14.76001,7.38,14.76001H7.62ZM41,41h-16.38l-5-10,2.98999-5.98004,1.67999,1.69c.39001.39001,1.03003.39001,1.42004,0l1.28998-1.29999,1.28998,1.29999c.20001.19.45001.29004.71002.29004s.51001-.10004.71002-.29004l1.67999-1.69,2.51996,5.03003c.08002.15997.21002.31.37006.40002l6.71997,4.10999v6.44Z"/>
        <path d="M6,12h2c.55273,0,1-.44727,1-1s-.44727-1-1-1h-2c-.55273,0-1,.44727-1,1s.44727,1,1,1Z"/>
        <path d="M11,9c.55273,0,1-.44727,1-1v-2c0-.55273-.44727-1-1-1s-1,.44727-1,1v2c0,.55273.44727,1,1,1Z"/>
        <path d="M14,12h2c.55273,0,1-.44727,1-1s-.44727-1-1-1h-2c-.55273,0-1,.44727-1,1s.44727,1,1,1Z"/>
        <path d="M11,17c.55273,0,1-.44727,1-1v-2c0-.55273-.44727-1-1-1s-1,.44727-1,1v2c0,.55273.44727,1,1,1Z"/>
        <circle cx="11" cy="11" r="1"/>
      </g>
    </g>
  </g>
</svg>