<?xml version="1.0" encoding="UTF-8"?>
<svg xmlns="http://www.w3.org/2000/svg" version="1.1" viewBox="0 0 48 48">
  <!-- Generator: Adobe Illustrator 28.7.1, SVG Export Plug-In . SVG Version: 1.2.0 Build 142)  -->
  <g>
    <g id="Outline">
      <path d="M41,37h-6v-17c0-2.58002-5.01001-3.84003-10-3.98999v-2.15002c1.71997-.45001,3-2,3-3.85999,0-2.04004-2.82001-4.35004-3.38-4.79004-.37-.27997-.87-.27997-1.23999,0-.56.44-3.38,2.75-3.38,4.79004,0,1.85999,1.28003,3.40997,3,3.85999v2.15002c-4.98999.14996-10,1.40997-10,3.98999v17h-6c-1.09998,0-2,.89996-2,2v2c0,1.09998.90002,2,2,2h34c1.09998,0,2-.90002,2-2v-2c0-1.10004-.90002-2-2-2ZM22,10c0-.58002.95001-1.75,2-2.69,1.04999.94,2,2.10999,2,2.69,0,1.09998-.90002,2-2,2s-2-.90002-2-2ZM15,20.01001c.15002-.52002,2.82001-1.84003,8-1.99005v.98004c0,.54999.45001,1,1,1s1-.45001,1-1v-.98004c5.14001.15002,7.81,1.45001,8,1.98004-.20001.57001-3.20001,2-9,2-5.84003,0-8.84003-1.46002-9-1.98004v-.00995ZM25,23.98999v3.01001c0,.54999-.45001,1-1,1s-1-.45001-1-1.06c0-.54999-.45001-1-1-1s-1,.45001-1,1v3.06c0,.54999-.45001,1-1,1s-1-.45001-1-1v-6.39001c1.58002.26001,3.31.39001,5,.39001.33002,0,.66998,0,1-.01001ZM15,22.42999c.57001.28998,1.25.52997,2,.73999v6.83002c0,1.64996,1.34998,3,3,3s3-1.35004,3-3v-.17999c.31.10999.65002.17999,1,.17999,1.65002,0,3-1.35004,3-3v-3.14001c2.33002-.21002,4.51001-.67999,6-1.42999v14.57001H15v-14.57001ZM41,41H7v-2h34v2Z"/>
    </g>
  </g>
</svg>