<?xml version="1.0" encoding="utf-8"?>
<!-- Generator: Adobe Illustrator 28.2.0, SVG Export Plug-In . SVG Version: 6.00 Build 0)  -->
<svg version="1.1" id="Outline" xmlns="http://www.w3.org/2000/svg" xmlns:xlink="http://www.w3.org/1999/xlink" x="0px" y="0px"
	 viewBox="0 0 64 64" enable-background="new 0 0 64 64" xml:space="preserve">
<g>
	<path d="M56.68282,34.62c-0.44-3.09998-1.27997-6.13-2.51001-8.98999c-0.21997-0.51001-0.81-0.75-1.31-0.53003
		c-0.51001,0.22003-0.75,0.81006-0.52997,1.31006c1.15997,2.70996,1.95001,5.56,2.37,8.48999
		c0.83997,5.94-0.13,10.95996-2.81,14.51001c-2.20001,2.92999-5.59003,4.84998-9.53003,5.39996
		c-4.38,0.62-8.39001-0.52997-11.45996-3.23999c5.47998-2.40997,10.09997-8.08002,10.09997-18.54999
		c0-7.44-2.41998-14.51001-6.07001-19.39001c0.51001-0.17999,1.03003-0.32001,1.57001-0.40002
		c4.60994-0.64996,10.04987,2.99992,13.8399,9.30978c0.27686,0.46094,0.89071,0.59942,1.38007,0.34024
		c0.47003-0.28998,0.62006-0.90002,0.34003-1.38c-4.27997-7.09998-10.34998-11.02002-15.84003-10.25
		c-0.90997,0.13-1.78998,0.39001-2.62,0.75c-2.78998-3.09998-6.13995-4.97998-9.59997-4.97998c-8.90002,0-17,12.39001-17,26
		c0,14.76001,9.15997,20,17,20c1.58002,0,3.21002-0.22003,4.81-0.67999c3,3.01996,6.90002,4.63995,11.22003,4.63995
		c0.85999,0,1.72998-0.06,2.60999-0.19c4.46997-0.62994,8.32001-2.81995,10.84998-6.16998
		C56.49282,46.63,57.6028,41.09003,56.68282,34.62z M24.00283,51.02002c-7.25,0-15-4.73004-15-18c0-12.56,7.15002-24,15-24
		c3.06,0,6.02002,1.75,8.47998,4.62c0.01001,0.01001,0.01001,0.02002,0.02002,0.03998c0.07001,0.14001,0.17999,0.25,0.31,0.34003
		c3.67999,4.5,6.19,11.54999,6.19,19C39.00283,46.28998,31.25283,51.02002,24.00283,51.02002z"/>
	<path d="M48.89452,48.40876c0.43913,0.32986,1.0705,0.24076,1.4003-0.19733c2.35352-3.125,3.19336-7.63086,2.42871-13.02979
		c-0.07812-0.54639-0.57031-0.92969-1.13086-0.8501c-0.54688,0.07764-0.92676,0.5835-0.84961,1.13037
		c0.68848,4.86182-0.01855,8.85449-2.0459,11.54639C48.36513,47.44971,48.45302,48.07666,48.89452,48.40876z"/>
	<path d="M34.7704,37.04639c-0.54492-0.12988-1.07617,0.2085-1.20117,0.74609c-1.26855,5.43311-5.20215,9.22754-9.5664,9.22754
		c-5.51367,0-10-5.83154-10-13s4.48633-13,10-13s10,5.83154,10,13c0,0.55225,0.44727,1,1,1s1-0.44775,1-1c0-8.271-5.38281-15-12-15
		s-12,6.729-12,15s5.38281,15,12,15c5.29785,0,10.0332-4.42969,11.51367-10.77246
		C35.64248,37.70947,35.30849,37.17188,34.7704,37.04639z"/>
</g>
</svg>
