<?xml version="1.0" encoding="UTF-8"?>
<svg xmlns="http://www.w3.org/2000/svg" version="1.1" viewBox="0 0 48 48">
  <!-- Generator: Adobe Illustrator 28.7.1, SVG Export Plug-In . SVG Version: 1.2.0 Build 142)  -->
  <g>
    <g id="Outline">
      <g>
        <path d="M27.36572,13.94775c-1.07666-1.17773-2.51562-1.82617-4.05127-1.82666h-.00049c-1.20752,0-2.35498.40137-3.31396,1.14453-.9585-.74316-2.10596-1.14404-3.31299-1.14453h-.00049c-1.53613,0-2.9751.64893-4.05225,1.82666-2.16699,2.37061-2.16699,6.22852,0,8.59912l6.62744,7.24902c.18945.20703.45752.3252.73828.3252s.54883-.11816.73828-.3252l6.62744-7.24902c2.16699-2.37061,2.16699-6.22852,0-8.59912ZM25.88916,21.19727l-5.88916,6.44189-5.88916-6.44189c-1.4873-1.62646-1.4873-4.27344-.00049-5.8999.69385-.7583,1.6084-1.17627,2.57617-1.17627s1.88232.41797,2.5752,1.17627c.18945.20703.45752.3252.73828.3252s.54834-.11816.73779-.3252c.69385-.7583,1.6084-1.17627,2.57617-1.17627s1.88232.41797,2.5752,1.17627c1.4873,1.62646,1.4873,4.27344,0,5.8999Z"/>
        <path d="M42.93604,41.64844l-1.80469-4.80762c.56934-1.19287.86865-2.51123.86865-3.84082,0-4.47906-3.29303-8.19397-7.58282-8.8772.38538-1.33423.58282-2.71539.58282-4.1228,0-8.271-6.729-15-15-15s-15,6.729-15,15c0,2.64746.6958,5.23389,2.01562,7.51074l-2.10449,6.31299c-.11963.35937-.02637.75585.24169,1.02343.26561.26513.66781.36026,1.02345.24171l6.31299-2.10449c3.48914,2.0224,7.77136,2.51959,11.63116,1.41699.67657,4.29755,4.39496,7.59863,8.87958,7.59863,1.3291,0,2.64795-.29932,3.84131-.86865,0,0,4.80713,1.80469,4.80715,1.8047.36378.1368.78366.0459,1.05857-.22901.27734-.27734.36719-.69141.229-1.05859ZM24.03394,32.33026c-3.58942,1.18024-7.66803.72247-10.89526-1.28876-.25342-.15771-.56055-.19287-.84521-.1001l-4.85254,1.61768,1.61768-4.85254c.09424-.28271.05762-.59277-.1001-.84521-1.28125-2.05615-1.9585-4.42871-1.9585-6.86133,0-7.16846,5.83154-13,13-13s13,5.83154,13,13c0,1.38416-.23041,2.73578-.65997,4.03345-4.43237.32404-7.97736,3.86572-8.30609,8.29681ZM37.13182,39.104c-.26995-.10195-.57606-.08038-.82957.05762-1.00732.54834-2.14941.83838-3.30225.83838-3.85986,0-7-3.14014-7-7s3.14014-7,7-7,7,3.14014,7,7c0,1.15332-.29004,2.29492-.83789,3.30127-.13916.25537-.16016.55811-.05811.83008l1.18555,3.1582s-3.15771-1.18555-3.15773-1.18555Z"/>
        <path d="M34.65723,28h-.00049c-.59131,0-1.1582.16162-1.65674.46533-.49805-.30371-1.06445-.46533-1.65625-.46533h-.00049c-.90967,0-1.76025.38184-2.39502,1.07568-1.25391,1.37207-1.25391,3.60352,0,4.97461l3.31348,3.62451c.18945.20703.45752.3252.73828.3252s.54883-.11816.73828-.3252l3.31348-3.62451c1.25342-1.37158,1.25342-3.60303,0-4.97461-.63428-.69336-1.48438-1.07568-2.39453-1.07568ZM35.5752,32.70068l-2.5752,2.81738-2.57568-2.81738c-.56396-.6167-.56348-1.65869,0-2.27539.25098-.27441.57764-.42529.91895-.42529h.00049c.34131,0,.66748.15088.91797.42529.18945.20703.45752.3252.73828.3252s.54834-.11816.73779-.3252c.25098-.27441.57764-.42529.91895-.42529h.00049c.34131,0,.66748.15088.91797.42529.56396.6167.56396,1.65869,0,2.27539Z"/>
      </g>
    </g>
  </g>
</svg>