<?xml version="1.0" encoding="UTF-8"?>
<svg xmlns="http://www.w3.org/2000/svg" version="1.1" viewBox="0 0 48 48">
  <!-- Generator: Adobe Illustrator 28.7.1, SVG Export Plug-In . SVG Version: 1.2.0 Build 142)  -->
  <g>
    <g id="Outline">
      <g>
        <path d="M26.48535,18.12109c-.89844,0-1.75488.27832-2.48535.79688-.73047-.51855-1.58691-.79688-2.48535-.79688-1.22314,0-2.36768.51562-3.22363,1.45117-1.70996,1.87109-1.70996,4.91602.00049,6.78711l4.9707,5.43652c.18945.20703.45703.3252.73779.3252s.54834-.11816.73779-.3252l4.97119-5.43652c1.70996-1.87109,1.70996-4.91602-.00049-6.78711-.85547-.93555-2-1.45117-3.22314-1.45117ZM28.23291,25.00977l-4.23291,4.62891-4.23242-4.62891c-1.03027-1.12695-1.03027-2.96094-.00049-4.08789.47217-.5166,1.09277-.80078,1.74756-.80078s1.27539.28418,1.74756.80078c.37891.41406,1.09668.41406,1.47559,0,.94434-1.0332,2.55127-1.0332,3.49463,0,1.03027,1.12695,1.03027,2.96094.00049,4.08789Z"/>
        <path d="M24,12c-6.6167,0-12,5.38281-12,12s5.3833,12,12,12,12-5.38281,12-12-5.3833-12-12-12ZM24,34c-5.51416,0-10-4.48633-10-10s4.48584-10,10-10,10,4.48633,10,10-4.48584,10-10,10Z"/>
        <path d="M42,23h-3c-.55225,0-1,.44727-1,1s.44775,1,1,1h3c.55225,0,1-.44727,1-1s-.44775-1-1-1Z"/>
        <path d="M40.97217,17.9209c.50879-.21484.74707-.80078.53223-1.30957s-.80127-.74902-1.31055-.53223l-2.76367,1.16699c-.50879.21484-.74707.80072-.53229,1.30945.21173.50146.81012.74408,1.31061.53235l2.76367-1.16699Z"/>
        <path d="M29.44501,11.10162c.50177.21216,1.09735-.02875,1.30988-.53229.00006-.00012,1.1665-2.76367,1.1665-2.76367.21484-.50879-.02393-1.09473-.53271-1.30957-.50977-.21582-1.0957.02344-1.31006.53223l-1.1665,2.76367c-.21484.50879.02393,1.09473.5329,1.30963Z"/>
        <path d="M17.24512,10.56934c.21246.5033.80707.74506,1.31006.53223.50879-.21484.74756-.80078.53271-1.30957l-1.1665-2.76367c-.21484-.50879-.80127-.74805-1.31006-.53223-.50879.21484-.74756.80078-.53271,1.30957,0,0,1.16614,2.76276,1.1665,2.76367Z"/>
        <path d="M10.56982,17.24609l-2.76367-1.16699c-.5083-.21484-1.09619.02344-1.31055.53223-.21484.50879.02344,1.09473.53223,1.30957,0,0,2.76294,1.16669,2.76367,1.16699.48669.20551,1.09497-.02136,1.31055-.53223.21484-.50879-.02344-1.09473-.53223-1.30957Z"/>
        <path d="M9.7915,28.91211l-2.76367,1.16699c-.50879.21484-.74707.80072-.53223,1.30951.20642.48901.802.74744,1.31055.53229l2.76367-1.16699c.50879-.21484.74707-.80078.53223-1.30957-.21436-.50781-.80029-.74805-1.31055-.53223Z"/>
        <path d="M18.55518,36.89844c-.50977-.21484-1.0957.02344-1.31006.53223l-1.1665,2.76367c-.21484.50879.02393,1.09473.53278,1.30957.5025.21259,1.09784-.02948,1.31-.53223l1.1665-2.76367c.21484-.50879-.02393-1.09473-.53271-1.30957Z"/>
        <path d="M30.75488,37.43066c-.21484-.50879-.79932-.74707-1.31006-.53223-.50879.21484-.74756.80078-.53271,1.30957,0,0,1.16479,2.7597,1.1665,2.76367.21124.50049.81104.74335,1.31006.53223.50879-.21484.74756-.80078.53271-1.30957l-1.1665-2.76367Z"/>
        <path d="M36.89795,29.44434c-.21484.50879.02344,1.09473.53223,1.30957,0,0,2.76367,1.16699,2.76373,1.16699.50317.21283,1.09875-.03046,1.31049-.53223.21484-.50879-.02344-1.09473-.53223-1.30957l-2.76367-1.16699c-.50928-.21484-1.0957.02344-1.31055.53223Z"/>
        <path d="M24,10c.55225,0,1-.44727,1-1v-3c0-.55273-.44775-1-1-1s-1,.44727-1,1v3c0,.55273.44775,1,1,1Z"/>
        <path d="M6,25h3c.55225,0,1-.44727,1-1s-.44775-1-1-1h-3c-.55225,0-1,.44727-1,1s.44775,1,1,1Z"/>
        <path d="M24,38c-.55225,0-1,.44727-1,1v3c0,.55273.44775,1,1,1s1-.44727,1-1v-3c0-.55273-.44775-1-1-1Z"/>
        <path d="M11.29297,12.70703c.37012.37012,1.01862.39545,1.41406,0,.39062-.39062.39062-1.02344,0-1.41406l-6-6c-.39062-.39062-1.02344-.39062-1.41406,0s-.39062,1.02344,0,1.41406l6,6Z"/>
        <path d="M36.70703,12.70703l6-6c.39062-.39062.39062-1.02344,0-1.41406s-1.02344-.39062-1.41406,0l-6,6c-.39062.39062-.39062,1.02338,0,1.414.36798.36804,1.01978.39417,1.41406.00006Z"/>
        <path d="M36.70703,35.29297c-.39062-.39062-1.02344-.39062-1.41406,0s-.39062,1.02344,0,1.41406l6,6c.38696.38696,1.02747.38654,1.41406,0,.39062-.39062.39062-1.02344,0-1.41406l-6-6Z"/>
        <path d="M11.29297,35.29297l-6,6c-.39062.39062-.39062,1.02344,0,1.41406.38727.38727,1.02734.38666,1.41406,0l6-6c.39062-.39062.39062-1.02344,0-1.41406s-1.02344-.39062-1.41406,0Z"/>
      </g>
    </g>
  </g>
</svg>