<?xml version="1.0" encoding="utf-8"?>
<!-- Generator: Adobe Illustrator 28.2.0, SVG Export Plug-In . SVG Version: 6.00 Build 0)  -->
<svg version="1.1" id="Outline" xmlns="http://www.w3.org/2000/svg" xmlns:xlink="http://www.w3.org/1999/xlink" x="0px" y="0px"
	 viewBox="0 0 64 64" enable-background="new 0 0 64 64" xml:space="preserve">
<g>
	<path d="M52.53003,20.29482c-0.96002-2.47998-3.20001-4.17999-5.83002-4.44C46.90002,15.20485,47,14.51485,47,13.82484
		c0-2.97003-1.88-5.62-4.66998-6.59003C41.81,7.04481,41.23999,7.32484,41.06,7.8448c-0.19,0.52002,0.09003,1.09003,0.60999,1.27002
		C43.65997,9.81483,45,11.70485,45,13.82484c0,0.89996-0.23999,1.77997-0.71002,2.56c-0.19995,0.33002-0.19,0.73999,0.03003,1.06
		c0.21002,0.32001,0.58997,0.48999,0.96997,0.44c0.24005-0.03003,0.47003-0.06,0.71002-0.06
		c2.21997,0,4.14001,1.42999,4.78003,3.54999c0.09998,0.32001,0.34998,0.57001,0.66998,0.66998
		c2.12,0.64001,3.54999,2.56,3.54999,4.78003c0,2.76001-2.23999,5-5,5c-1.22998,0-2.41998-0.46002-3.33002-1.28003
		c-0.38-0.34998-0.95996-0.34998-1.33997,0C44.41998,31.36482,43.22998,31.82484,42,31.82484c-1.69,0-3.25-0.84003-4.16998-2.26001
		c-0.23999-0.35999-0.67999-0.53003-1.10004-0.41003c-0.41998,0.11005-0.71997,0.48004-0.73999,0.91003
		c-0.13,2.66998-2.33002,4.76001-4.98999,4.76001c-1.46002,0-2.84003-0.64001-3.78998-1.75
		C26.88,32.68483,26.29999,32.61482,25.88,32.9048c-0.85999,0.60004-1.84998,0.92004-2.88,0.92004
		c-1.88,0-3.58002-1.04004-4.44-2.71002c-0.14001-0.27002-0.38-0.46002-0.66998-0.52997c-0.29999-0.06-0.60004,0.00995-0.83002,0.19
		c-0.89001,0.69-1.95001,1.04999-3.06,1.04999c-2.76001,0-5-2.23999-5-5s2.23999-5,5-5c0.13,0,0.26001,0.01001,0.39001,0.01996
		c0.32001,0.04004,0.64996-0.07996,0.87-0.32996c1.01001-1.14001,2.5-1.79999,4.02002-1.67004
		c0.33997,0.03003,0.66998-0.12,0.87994-0.38995c0.20001-0.27002,0.26001-0.63,0.14001-0.95001
		C20.09998,17.95485,20,17.39485,20,16.82484c0-2.76001,2.23999-5,5-5c1.41998,0,2.78998,0.62,3.73999,1.69
		c0.22003,0.25,0.54004,0.37,0.87,0.32996c1.37-0.15997,2.73004,0.35004,3.75,1.28003c0.31,0.27997,0.76001,0.34003,1.13,0.15002
		s0.58002-0.59003,0.53003-1C35.01001,14.12483,35,13.97481,35,13.82484c0-2.12,1.34003-4.01001,3.33002-4.71002
		C38.84998,8.93483,39.13,8.36482,38.94,7.8448c-0.17999-0.51996-0.75-0.79999-1.27002-0.60999
		C35.28003,8.06483,33.56,10.12483,33.12,12.55482c-1-0.48999-2.08997-0.75-3.22998-0.72998c-1.31-1.28003-3.06-2-4.89001-2
		c-3.85999,0-7,3.14001-7,7c0,0.35999,0.03003,0.70996,0.08002,1.06c-1.48999,0.20001-2.88,0.88-3.97003,1.94
		C10.20001,19.78481,7,22.92482,7,26.82484c0,3.85999,3.14001,7,7,7c1.03998,0,2.03998-0.23999,2.96002-0.67004l9.63,13.36005
		c1.95996,2.73999,3,5.95996,3,9.31c0,0.54999,0.44995,1,1,1h6c0.54999,0,1-0.45001,1-1v-2.75
		c0-0.40002,0.01996-0.79004,0.04999-1.17999c0.03998-0.55005-0.38-1.03003-0.92999-1.07001
		c-0.57001-0.03003-1.03003,0.38-1.07001,0.92999c-0.03003,0.42999-0.04999,0.88-0.04999,1.32001v1.75H31.56
		c-0.17999-3.41003-1.33002-6.67004-3.34998-9.47003l-7.04004-9.77997c0.59003,0.15997,1.20001,0.25,1.83002,0.25
		c0.71997,0,1.41998-0.12,2.09003-0.34003l4.69,6.51001c0.18993,0.27,0.48996,0.41997,0.80995,0.41998
		c0.5451,0.00002,1.00005-0.45493,1.00005-1v-4.63995c1.51996-0.13,2.90997-0.74005,4-1.69v5.32996
		c0,0.40001,0.23997,0.76999,0.61995,0.92003c0.37388,0.14762,0.80112,0.07888,1.09001-0.21001L45.62,32.78481
		c0.13-0.06995,0.26001-0.13995,0.38-0.21997c0.54999,0.38,1.15002,0.67999,1.78003,0.89001l-6.94,6.94
		c-1.99005,2-3.5,4.45996-4.36005,7.12c-0.16997,0.52993,0.11995,1.08989,0.6399,1.25997
		c0.4982,0.16298,1.0917-0.117,1.26012-0.63998c0.76001-2.35999,2.09998-4.54999,3.88-6.32001l8-8
		C54,33.67482,57,30.5948,57,26.82484C57,23.89485,55.21997,21.33485,52.53003,20.29482z M29.59003,38.31483l-1.55005-2.15002
		c0.49005,0.23004,1.01001,0.40002,1.55005,0.51001V38.31483z M37.59003,37.99483v-5.73999
		c1.16998,0.96002,2.63995,1.5,4.19,1.54999L37.59003,37.99483z"/>
	<path d="M22,16.82484c0,0.55225,0.44727,1,1,1s1-0.44775,1-1c0-0.55127,0.44824-1,1-1c0.55273,0,1-0.44775,1-1s-0.44727-1-1-1
		C23.3457,13.82484,22,15.17055,22,16.82484z"/>
</g>
</svg>
