<?xml version="1.0" encoding="utf-8"?>
<!-- Generator: Adobe Illustrator 28.2.0, SVG Export Plug-In . SVG Version: 6.00 Build 0)  -->
<svg version="1.1" id="Outline" xmlns="http://www.w3.org/2000/svg" xmlns:xlink="http://www.w3.org/1999/xlink" x="0px" y="0px"
	 viewBox="0 0 64 64" enable-background="new 0 0 64 64" xml:space="preserve">
<g>
	<path d="M45.70947,21.90606c0.21143-0.21289,0.31592-0.50977,0.28516-0.80762c-0.03076-0.29883-0.19385-0.56738-0.44385-0.73242
		l-0.93359-0.61523c-1.51123-1.01465-3.28906-1.53516-5.11328-1.49902l-4.13239,0.06683l-0.22406-0.89691
		c-0.55566-2.2207-0.71826-4.6084-0.47021-6.90527c0.16894-1.56051-0.8559-2.9677-2.38416-3.27341
		c-1.66952-0.33397-3.39435,0.91345-3.57824,2.60447c-0.28192,2.59167-0.13898,5.26465,0.36591,7.81744l-1.58563-0.1192
		c-0.48682-0.04199-0.98242-0.05762-1.51807-0.04395c-0.55225,0.0127-0.98926,0.4707-0.97656,1.02246
		c0.01221,0.55273,0.47119,0.95508,1.02246,0.97754c0.4624-0.0127,0.88818,0.00098,1.31201,0.03711l2.19775,0.16541l0.55664,2.22717
		c0.11371,0.45484,0.52107,0.7575,0.96855,0.75781c0.64162,0.00045,1.12741-0.62009,0.97188-1.24219l-0.76318-3.05371
		c-0.6699-2.67862-0.86473-5.5584-0.56351-8.32882c0.13987-1.28637,2.12482-1.04942,1.98587,0.23702
		c-0.27344,2.52832-0.09424,5.15918,0.51807,7.60547l0.76318,3.05371c0.13428,0.53711,0.68018,0.8623,1.21289,0.72754
		c0.53564-0.13379,0.86133-0.67676,0.72754-1.21191l-0.04132-0.16528l3.66974-0.05933
		c1.39258-0.02344,2.73242,0.35742,3.89062,1.11133l-0.57715,0.58105c-0.88721,0.8877-2.00635,1.51953-3.23291,1.82617
		l-1.85986,0.45996c-0.34863,0.08594-0.62451,0.35254-0.72217,0.69824c-0.09766,0.34668-0.00244,0.71777,0.24951,0.97363
		l0.67969,0.69043c0.73926,0.73145,1.28906,1.60547,1.63818,2.6084h-0.21484c-1.40283,0-2.75-0.41309-3.90137-1.19922
		c-1.16162-0.7832-2.04639-1.87891-2.55957-3.16992c-0.13721-0.3457-0.45508-0.58691-0.82568-0.625
		c-0.37012-0.04199-0.73096,0.13184-0.93652,0.44141l-1.53076,2.30566c-0.32959,0.47949-0.61475,1.01465-0.875,1.64648
		l-0.76025,1.90234l-0.11475-0.28809c-0.54053-1.33008-0.64551-2.84473-0.29639-4.25879l0.37988-1.51074
		c0.0752-0.29883,0.0083-0.61621-0.18115-0.85938C27.59912,23.34356,27.30811,23.20098,27,23.20098h-2.7998
		c-1.25684,0-2.49414-0.3418-3.5752-0.9873l-1.54639-0.92969l0.41455-0.20605c0.93506-0.46191,1.83838-0.80566,2.76221-1.0498
		c0.53418-0.14062,0.85254-0.68848,0.71143-1.22266c-0.1416-0.53418-0.69043-0.85449-1.22217-0.71094
		c-1.04004,0.27441-2.09619,0.67578-3.14014,1.19141l-2.0498,1.01953c-0.32715,0.16309-0.53955,0.49023-0.55371,0.85547
		c-0.01465,0.36523,0.1709,0.70898,0.48389,0.89746l0.72974,0.43872C10.78772,26.06426,7,31.68187,7,37.81133
		c0,8.45116,7.14402,15.76365,17.77681,18.19432c0.51549,0.11784,1.07509-0.21471,1.1978-0.75194
		c0.12354-0.53809-0.21338-1.07422-0.75146-1.19727C15.6709,51.87188,9,45.19219,9,37.81133
		c0-5.69598,3.81494-10.93396,10.2226-14.10706l0.37457,0.22522c1.39355,0.83203,2.98535,1.27148,4.60303,1.27148h1.51709
		l-0.06787,0.27051c-0.45752,1.85254-0.32471,3.75293,0.38184,5.49023l1.04004,2.60938
		c0.15137,0.37988,0.51904,0.62988,0.92871,0.62988c0.40918,0,0.77686-0.24902,0.92871-0.62891l1.68604-4.21973
		c0.20166-0.48926,0.42041-0.90332,0.67822-1.27832l0.60498-0.91113c0.64355,0.98047,1.479,1.82715,2.46826,2.49414
		c1.47949,1.00977,3.2168,1.54395,5.02393,1.54395H41c0.32227,0,0.625-0.15527,0.8125-0.41699
		c0.18799-0.2627,0.23828-0.59863,0.13477-0.9043l-0.40771-1.20215c-0.35986-1.08887-0.90625-2.07031-1.62354-2.91992
		l0.18604-0.04688c1.54871-0.38647,2.95801-1.17969,4.09283-2.29028C50.87274,26.52257,55,31.98381,55,37.81133
		c0,9.37402-10.31787,17-23,17c-0.94971,0-1.92822-0.0459-2.90869-0.13574c-0.55566-0.04785-1.03662,0.35547-1.08691,0.90527
		c-0.05078,0.5498,0.35449,1.03613,0.9043,1.08691C29.94971,56.7625,30.98975,56.81133,32,56.81133c13.78516,0,25-8.52344,25-19
		C57,31.39006,52.70483,25.40483,45.70947,21.90606z"/>
	<path d="M53,37.81133c0-0.55273-0.44775-1-1-1s-1,0.44727-1,1c0,7.04688-8.70117,13-19,13c-0.55225,0-1,0.44727-1,1s0.44775,1,1,1
		C43.3833,52.81133,53,45.94219,53,37.81133z"/>
</g>
</svg>
