<?xml version="1.0" encoding="utf-8"?>
<!-- Generator: Adobe Illustrator 28.2.0, SVG Export Plug-In . SVG Version: 6.00 Build 0)  -->
<svg version="1.1" id="Outline" xmlns="http://www.w3.org/2000/svg" xmlns:xlink="http://www.w3.org/1999/xlink" x="0px" y="0px"
	 viewBox="0 0 64 64" enable-background="new 0 0 64 64" xml:space="preserve">
<g>
	<path d="M55.35046,16.47388c0.93604-1.33936,1.53516-2.81445,1.68652-4.15283c0.17627-1.55859-0.26172-2.79053-1.23145-3.46826
		c-1.21454-0.85309-2.98822-0.56152-4.68762,0.65857c-0.71783-1.54352-1.85925-2.51013-3.19714-2.51013
		c-1.33783,0-2.47925,0.96655-3.19708,2.51001c-1.69952-1.22021-3.47321-1.51141-4.68573-0.65991
		c-0.97168,0.6792-1.40967,1.91113-1.2334,3.46973c0.15137,1.33838,0.75049,2.81348,1.6875,4.1543
		c0.66895,0.95337,1.42694,1.72321,2.20782,2.30682c-1.93542,0.94757-3.38165,3.03265-3.8446,7.48102
		c-6.14301-5.78894-10.03028-6.39929-13.17737-4.90619c0.10004-1.40277-0.06512-3.04413-0.51984-4.73663
		c-0.80908-3.0083-2.30322-5.44531-3.8999-6.35986c-0.86426-0.49561-1.58691-0.45312-2.02832-0.33008
		c-1.55597,0.4071-2.3891,2.2937-2.33765,4.98456c-0.39618-0.22186-0.78937-0.41577-1.17358-0.56952
		c-2.33301-0.93262-3.52539-0.22998-4.02783,0.27197s-1.20557,1.69336-0.27197,4.02783
		c0.15369,0.38409,0.34753,0.77716,0.56927,1.17322c-2.69049-0.052-4.57703,0.77948-4.98138,2.32678
		c-0.12451,0.45312-0.16846,1.1748,0.32715,2.03955c0.91455,1.59668,3.35156,3.09082,6.36035,3.8999
		c1.38525,0.37207,2.7417,0.55664,3.95801,0.55664c0.26624,0,0.51868-0.01697,0.77026-0.03467
		c-1.53345,3.22589-0.85614,7.22565,5.37427,13.65088c0.38477,0.39697,1.01758,0.40576,1.41406,0.02148
		s0.40625-1.01758,0.02148-1.41406c-0.8374-0.86359-1.55774-1.66919-2.18066-2.42676l3.72998-3.72998
		c0.39062-0.39062,0.39062-1.02344,0-1.41406s-1.02344-0.39062-1.41406,0l-3.53772,3.53772
		c-3.05188-4.38214-2.29376-6.89398-0.58215-9.01825c0.01813-0.01495,1.77063-1.90131,1.77893-1.90985
		c0.5495-0.54822,1.85077-1.71698,1.86475-1.73401c1.91907-1.54462,4.15411-2.31506,7.80017-0.19958l-2.32398,2.32397
		c-0.39053,0.39053-0.39062,1.02313-0.00028,1.41378c0.36264,0.36292,1.02132,0.39331,1.41434,0.00028l2.60956-2.60956
		c1.23596,0.91003,2.61243,2.10559,4.16681,3.65985c3.67798,3.67419,6.96118,7.94098,9.37494,11.97028l-2.56537,2.56537
		c-0.39062,0.39062-0.39062,1.02344,0.0001,1.41416c0.38901,0.3889,1.02684,0.38702,1.41397-0.0001l2.18237-2.18237
		c0.77844,1.43311,1.42371,2.81311,1.9267,4.1095c0.0119,0.03693,0.02655,0.07056,0.04266,0.10583
		c0.73126,1.90833,1.1427,3.62573,1.14221,5.01343c-0.00049,1.11084-0.26514,1.93799-0.78906,2.46045
		c-2.64032,2.64618-12.35431-1.51318-21.17713-8.83459l1.67224-1.67224c0.39063-0.39062,0.39063-1.02344,0-1.41406
		c-0.39062-0.39062-1.02344-0.39062-1.41406,0l-1.77948,1.77948c-0.17719-0.15649-0.35748-0.3056-0.53351-0.46454
		c-0.41064-0.37158-1.04248-0.3374-1.41211,0.07178c-0.37012,0.41016-0.33789,1.04248,0.07178,1.4126
		c7.34912,6.63525,16.43213,11.90527,22.09863,11.90527c1.61182,0,2.94775-0.42676,3.8877-1.36963
		c0.91162-0.90918,1.37451-2.2124,1.375-3.87354c0.00061-1.53088-0.41754-3.37854-1.16656-5.40967
		c1.48999-3.48907,2.54236-8.28699,2.89313-13.27441c0.03857-0.55127-0.37646-1.0293-0.92725-1.06787
		c-0.56152-0.03711-1.02881,0.37646-1.06787,0.92725c-0.27545,3.91968-0.99817,7.69391-2.02319,10.74359
		c-2.35028-4.97888-6.32928-10.66107-11.05927-15.55237c0.30249-7.57546,2.85735-8.0866,5.93249-8.11853
		c0.20584-0.00214,0.43269-0.00238,0.64753-0.00238c3.47021,0,6.46729,0,6.60986,9.01562
		c0.00879,0.54688,0.45459,0.98438,1.01562,0.98438c0.55225-0.00879,0.99316-0.46387,0.98438-1.01562
		c-0.09082-5.7356-1.41119-8.49457-3.3443-9.81134C53.55115,18.57056,54.51868,17.65948,55.35046,16.47388z M19.74695,11.86206
		c0.1582-0.04346,0.36865,0.04883,0.51709,0.13379c0.89941,0.51514,2.20996,2.34473,2.9624,5.14355
		c0.62146,2.31268,0.58612,4.20807,0.25476,5.32385c-0.52197-1.65131-1.77148-3.48364-3.30554-5.0177
		c-0.3764-0.3764-0.76538-0.7262-1.15997-1.05432C18.62201,13.617,19.24267,11.99396,19.74695,11.86206z M13.10486,16.03149
		c0.0874-0.0874,0.26611-0.14258,0.52441-0.14258c0.32861,0,0.78564,0.08936,1.34668,0.31348
		c1.19531,0.47803,2.57471,1.44678,3.78564,2.65723c2.62128,2.62128,3.31976,5.13562,2.83276,5.64832
		c-0.0025,0.0025-0.00507,0.00494-0.00757,0.00745c-0.00189,0.00189-0.00366,0.00378-0.00555,0.00568
		c-0.51373,0.48883-3.02753-0.21259-5.64825-2.83282c-1.21045-1.21094-2.1792-2.59033-2.65723-3.78564
		C12.87488,16.90063,12.90613,16.23022,13.10486,16.03149z M14.21326,26.15308c-2.79932-0.75244-4.62891-2.06299-5.14404-2.9624
		c-0.08496-0.14844-0.17725-0.3584-0.13086-0.52832c0.12909-0.49353,1.75116-1.11365,4.52625-0.71997
		c0.32812,0.39459,0.67792,0.78351,1.05432,1.15991c1.53162,1.53204,3.36175,2.78345,5.01111,3.30682
		C18.41333,26.73944,16.52142,26.77362,14.21326,26.15308z M47.92078,9.00122c0.81543,0,2,1.75293,2,4.5s-1.18457,4.5-2,4.5
		s-2-1.75293-2-4.5S47.10535,9.00122,47.92078,9.00122z M40.79187,12.09644c-0.0874-0.77295,0.05908-1.37305,0.39355-1.60693
		c0.49957-0.35095,1.67725-0.02612,2.90509,1.06232c-0.11023,0.6109-0.16974,1.26434-0.16974,1.9494
		c0,1.64136,0.33856,3.10229,0.9126,4.22241c-0.83069-0.37207-1.82562-1.14478-2.70264-2.39526
		C41.39294,14.27271,40.90466,13.09448,40.79187,12.09644z M51.00897,17.72223c0.57361-1.11993,0.9118-2.58038,0.9118-4.22101
		c0-0.68512-0.05951-1.3385-0.16974-1.9494c1.22754-1.08838,2.4057-1.41492,2.90704-1.06085
		c0.33252,0.23242,0.479,0.83252,0.3916,1.60547c-0.11279,0.99805-0.60107,2.17627-1.33789,3.23047
		C52.83502,16.5766,51.8396,17.3493,51.00897,17.72223z"/>
	<path d="M37.36755,34.29419l-3,3c-0.39055,0.39055-0.39062,1.02319-0.00023,1.41383
		c0.3596,0.35983,1.02652,0.38797,1.41429,0.00023l3-3c0.39062-0.39062,0.39062-1.02344,0-1.41406
		S37.75818,33.90356,37.36755,34.29419z"/>
	<path d="M36.36755,47.70825c0.38866,0.38866,1.02582,0.38824,1.41406,0l3-3c0.39062-0.39062,0.39062-1.02344,0-1.41406
		s-1.02344-0.39062-1.41406,0l-3,3C35.97695,46.6848,35.97693,47.31756,36.36755,47.70825z"/>
</g>
</svg>
