<?xml version="1.0" encoding="UTF-8"?>
<svg xmlns="http://www.w3.org/2000/svg" version="1.1" viewBox="0 0 48 48">
  <!-- Generator: Adobe Illustrator 28.7.1, SVG Export Plug-In . SVG Version: 1.2.0 Build 142)  -->
  <g>
    <g id="Outline">
      <g>
        <path d="M39,10h-1v-2c0-1.6543-1.3457-3-3-3H13c-1.6543,0-3,1.3457-3,3v2h-1c-1.6543,0-3,1.3457-3,3s1.3457,3,3,3h1v3h-1c-1.6543,0-3,1.3457-3,3s1.3457,3,3,3h1v3h-1c-1.6543,0-3,1.3457-3,3s1.3457,3,3,3h1v2c0,1.6543,1.3457,3,3,3h1v1c0,1.6543,1.3457,3,3,3h18c.26514,0,.51953-.10547.70703-.29297l6-6c.1875-.1875.29297-.44189.29297-.70703V13c0-1.6543-1.3457-3-3-3ZM10,32h-1c-.55127,0-1-.44873-1-1s.44873-1,1-1h1v2ZM10,23h-1c-.55127,0-1-.44873-1-1s.44873-1,1-1h1v2ZM10,14h-1c-.55127,0-1-.44873-1-1s.44873-1,1-1h1v2ZM34,41h-17c-.55127,0-1-.44873-1-1v-1h18v2ZM35,35c-.55225,0-1,.44775-1,1v1H13c-.55127,0-1-.44873-1-1v-2h1c1.6543,0,3-1.3457,3-3,0-.55225-.44775-1-1-1s-1,.44775-1,1c0,.55127-.44873,1-1,1h-1v-7h1c1.6543,0,3-1.3457,3-3,0-.55225-.44775-1-1-1s-1,.44775-1,1c0,.55127-.44873,1-1,1h-1v-7h1c1.6543,0,3-1.3457,3-3,0-.55225-.44775-1-1-1s-1,.44775-1,1c0,.55127-.44873,1-1,1h-1v-6c0-.55127.44873-1,1-1h22c.55127,0,1,.44873,1,1v27h-1ZM36,39.58594v-2.58594h2.58594l-2.58594,2.58594ZM40,35h-2V12h1c.55127,0,1,.44873,1,1v22Z"/>
        <path d="M33,9h-14c-.55225,0-1,.44775-1,1v6c0,.55225.44775,1,1,1h14c.55225,0,1-.44775,1-1v-6c0-.55225-.44775-1-1-1ZM32,15h-12v-4h12v4Z"/>
        <path d="M33,19h-14c-.55225,0-1,.44775-1,1s.44775,1,1,1h14c.55225,0,1-.44775,1-1s-.44775-1-1-1Z"/>
        <path d="M33,23h-14c-.55225,0-1,.44775-1,1s.44775,1,1,1h14c.55225,0,1-.44775,1-1s-.44775-1-1-1Z"/>
        <path d="M33,27h-14c-.55225,0-1,.44775-1,1s.44775,1,1,1h14c.55225,0,1-.44775,1-1s-.44775-1-1-1Z"/>
        <path d="M33,31h-14c-.55225,0-1,.44775-1,1s.44775,1,1,1h14c.55225,0,1-.44775,1-1s-.44775-1-1-1Z"/>
      </g>
    </g>
  </g>
</svg>