<?xml version="1.0" encoding="utf-8"?>
<!-- Generator: Adobe Illustrator 28.2.0, SVG Export Plug-In . SVG Version: 6.00 Build 0)  -->
<svg version="1.1" id="Outline" xmlns="http://www.w3.org/2000/svg" xmlns:xlink="http://www.w3.org/1999/xlink" x="0px" y="0px"
	 viewBox="0 0 64 64" enable-background="new 0 0 64 64" xml:space="preserve">
<g>
	<path d="M56,41h-5c-0.55273,0-1,0.44727-1,1s0.44727,1,1,1h4v3c0,4.96289-4.03711,9-9,9h-4c-4.96289,0-9-4.03711-9-9v-3h14
		c0.55273,0,1-0.44727,1-1s-0.44727-1-1-1h-4V27c0-0.55273-0.44727-1-1-1s-1,0.44727-1,1v10H30.63965
		c-0.22949,0-0.45216,0.0791-0.62988,0.22363C28.59766,38.36914,26.81934,39,25,39s-3.59766-0.63086-5.00977-1.77637
		C19.81249,37.0791,19.58984,37,19.36035,37H9V21h10.36035c0.22949,0,0.45214-0.0791,0.62988-0.22363
		C21.40234,19.63086,23.18066,19,25,19s3.59766,0.63086,5.00977,1.77637C30.18749,20.9209,30.41016,21,30.63965,21H41v2
		c0,0.55273,0.44727,1,1,1s1-0.44727,1-1v-9c0-0.00946-0.00513-0.01733-0.00537-0.02673
		c-0.00262-0.09753-0.01453-0.19501-0.04639-0.28967l-2-6C40.81249,7.27539,40.43066,7,40,7H10
		C9.56934,7,9.18749,7.27539,9.05176,7.68359l-2,6c-0.03186,0.09467-0.04376,0.1922-0.04639,0.28967
		C7.00513,13.98267,7,13.99054,7,14v38c0,2.75684,2.24316,5,5,5h26c0.54071,0,8,0,8,0c6.06543,0,11-4.93457,11-11v-4
		C57,41.44727,56.55273,41,56,41z M30.9834,19c-1.71777-1.29199-3.82812-2-5.9834-2s-4.26562,0.70801-5.9834,2H9v-4h32v4H30.9834z
		 M10.7207,9H39.2793l1.33301,4H9.3877L10.7207,9z M12,55c-1.6543,0-3-1.3457-3-3V39h10.0166c1.71777,1.29199,3.82812,2,5.9834,2
		s4.26562-0.70801,5.9834-2H41v2h-9c-0.55273,0-1,0.44727-1,1v4c0,3.71985,1.86072,7.00824,4.69525,9H12z"/>
	<path d="M19,28c-0.55273,0-1,0.44727-1,1v2c0,2.75684,2.24316,5,5,5h2h2c2.75684,0,5-2.24316,5-5v-2c0-0.55273-0.44727-1-1-1h-2
		c-0.16968,0-0.33014,0.03351-0.49548,0.05011c0.25116-1.54321-0.21246-3.17212-1.38733-4.34698l-1.41016-1.41016
		c-0.39062-0.39062-1.02344-0.39062-1.41406,0l-1.41016,1.41016c-1.17487,1.17487-1.63849,2.80377-1.38733,4.34698
		C21.33014,28.03351,21.16968,28,21,28H19z M20,31v-1h1c1.6543,0,3,1.3457,3,3v1h-1C21.3457,34,20,32.6543,20,31z M30,30v1
		c0,1.6543-1.3457,3-3,3h-1v-1c0-1.6543,1.3457-3,3-3H30z M24.29688,25.11719L25,24.41406l0.70312,0.70312
		c1.05896,1.05896,1.17517,2.73309,0.2843,3.9187c-0.37408,0.2851-0.70648,0.61768-0.98743,0.99506
		c-0.27911-0.37488-0.60913-0.70514-0.98016-0.98901C23.12268,27.85547,23.23572,26.17834,24.29688,25.11719z"/>
</g>
</svg>
