<?xml version="1.0" encoding="utf-8"?>
<!-- Generator: Adobe Illustrator 28.2.0, SVG Export Plug-In . SVG Version: 6.00 Build 0)  -->
<svg version="1.1" id="Outline" xmlns="http://www.w3.org/2000/svg" xmlns:xlink="http://www.w3.org/1999/xlink" x="0px" y="0px"
	 viewBox="0 0 64 64" enable-background="new 0 0 64 64" xml:space="preserve">
<g>
	<path d="M49.33002,12H14.66998C10.44,12,7,15.44,7,19.66998c0,2.40002,1.15002,4.69,3.07001,6.13L11,26.5V37
		c0,0.54999,0.45001,1,1,1s1-0.45001,1-1V27h10v23H13v-9c0-0.54999-0.45001-1-1-1s-1,0.45001-1,1v10c0,0.54999,0.45001,1,1,1h40
		c0.54999,0,1-0.45001,1-1V38c0-0.54999-0.45001-1-1-1s-1,0.45001-1,1v12H25V26c0-0.31-0.15002-0.60999-0.40002-0.79999l-1.32996-1
		C21.84998,23.14001,21,21.44,21,19.66998C21,16.53998,23.53998,14,26.66998,14h22.66003C52.46002,14,55,16.53998,55,19.66998
		c0,1.77002-0.84998,3.47003-2.27002,4.53003l-1.32996,1C51.15002,25.39001,51,25.69,51,26v8c0,0.54999,0.45001,1,1,1s1-0.45001,1-1
		v-7.5l0.92999-0.70001c1.91998-1.44,3.07001-3.72998,3.07001-6.13C57,15.44,53.56,12,49.33002,12z M19,19.66998
		c0,2,0.79999,3.90997,2.17999,5.33002h-8.84998l-1.06-0.79999C9.84998,23.13,9,21.44,9,19.66998
		C9,16.53998,11.53998,14,14.66998,14h6.85004C19.97998,15.39996,19,17.41998,19,19.66998z"/>
	<path d="M40,24c2.75684,0,5-2.24316,5-5v-2c0-0.55273-0.44775-1-1-1h-2c-1.6413,0-3.08777,0.80573-4,2.03094
		C37.08777,16.80573,35.6413,16,34,16h-2c-0.55225,0-1,0.44727-1,1v2c0,2.75684,2.24316,5,5,5h1v3.02557
		C36.16174,26.39099,35.12994,26,34,26h-2c-0.55225,0-1,0.44727-1,1v2c0,2.75684,2.24316,5,5,5h1v3.02557
		C36.16174,36.39099,35.12994,36,34,36h-2c-0.55225,0-1,0.44727-1,1v2c0,2.75684,2.24316,5,5,5h1v3c0,0.55273,0.44775,1,1,1
		s1-0.44727,1-1v-3h1c2.75684,0,5-2.24316,5-5v-2c0-0.55273-0.44775-1-1-1h-2c-1.12994,0-2.16174,0.39099-3,1.02557V34h1
		c2.75684,0,5-2.24316,5-5v-2c0-0.55273-0.44775-1-1-1h-2c-1.12994,0-2.16174,0.39099-3,1.02557V24H40z M42,18h1v1
		c0,1.6543-1.3457,3-3,3h-1v-1C39,19.3457,40.3457,18,42,18z M33,19v-1h1c1.6543,0,3,1.3457,3,3v1h-1C34.3457,22,33,20.6543,33,19z
		 M33,29v-1h1c1.6543,0,3,1.3457,3,3v1h-1C34.3457,32,33,30.6543,33,29z M33,39v-1h1c1.6543,0,3,1.3457,3,3v1h-1
		C34.3457,42,33,40.6543,33,39z M42,38h1v1c0,1.6543-1.3457,3-3,3h-1v-1C39,39.3457,40.3457,38,42,38z M42,28h1v1
		c0,1.6543-1.3457,3-3,3h-1v-1C39,29.3457,40.3457,28,42,28z"/>
</g>
</svg>
