<?xml version="1.0" encoding="UTF-8"?>
<svg xmlns="http://www.w3.org/2000/svg" version="1.1" viewBox="0 0 48 48">
  <!-- Generator: Adobe Illustrator 28.7.1, SVG Export Plug-In . SVG Version: 1.2.0 Build 142)  -->
  <g>
    <g id="Outline">
      <g>
        <path d="M42.93652,41.64844l-1.80566-4.80713c.57031-1.19287.86914-2.51123.86914-3.84131,0-4.47913-3.29266-8.19403-7.58289-8.8772.38519-1.33447.58289-2.71564.58289-4.1228,0-8.271-6.72852-15-15-15s-15,6.729-15,15c0,2.64844.69531,5.23486,2.01562,7.51074l-2.10352,6.31299c-.12012.35937-.02637.75586.24121,1.02343.2653.2653.66745.36093,1.02344.2417l6.31348-2.10449c3.48792,2.02374,7.76971,2.52032,11.63019,1.41705.67657,4.29755,4.39453,7.59857,8.87958,7.59857,1.3291,0,2.64746-.29932,3.8418-.86865,0,0,4.80664,1.80469,4.80668,1.8047.36412.13692.78315.04638,1.05855-.22902.27734-.27734.36719-.69141.22949-1.05859ZM24.03394,32.33014c-3.58893,1.18036-7.66974.72223-10.89429-1.28864-.25391-.15771-.5625-.19336-.8457-.1001l-4.85254,1.61768,1.61719-4.85254c.09473-.28271.05762-.59277-.09961-.8457-1.28125-2.05469-1.95898-4.42725-1.95898-6.86084,0-7.16846,5.83203-13,13-13s13,5.83154,13,13c0,1.38409-.23029,2.73535-.65955,4.03345-4.43286.32379-7.97778,3.8656-8.30652,8.29669ZM37.1318,39.10399c-.27037-.10254-.57616-.08064-.83005.05763-1.00684.54834-2.14844.83838-3.30176.83838-3.85938,0-7-3.14014-7-7s3.14062-7,7-7,7,3.14014,7,7c0,1.15381-.29004,2.29541-.83789,3.30127-.13867.25488-.16016.55811-.05859.83008l1.18652,3.1582s-3.1582-1.18555-3.15824-1.18556Z"/>
        <path d="M34.79297,30.79297l-2.29297,2.29297-1.29297-1.29297c-.39062-.39062-1.02344-.39062-1.41406,0s-.39062,1.02344,0,1.41406l2,2c.19531.19531.45117.29297.70703.29297s.51172-.09766.70703-.29297l3-3c.39062-.39062.39062-1.02344,0-1.41406s-1.02344-.39062-1.41406,0Z"/>
        <path d="M11,17h18c.55273,0,1-.44775,1-1s-.44727-1-1-1H11c-.55273,0-1,.44775-1,1s.44727,1,1,1Z"/>
        <path d="M11,21h18c.55273,0,1-.44775,1-1s-.44727-1-1-1H11c-.55273,0-1,.44775-1,1s.44727,1,1,1Z"/>
        <path d="M25,23h-14c-.55273,0-1,.44775-1,1s.44727,1,1,1h14c.55273,0,1-.44775,1-1s-.44727-1-1-1Z"/>
      </g>
    </g>
  </g>
</svg>