<?xml version="1.0" encoding="UTF-8"?>
<svg xmlns="http://www.w3.org/2000/svg" version="1.1" viewBox="0 0 48 48">
  <!-- Generator: Adobe Illustrator 28.7.1, SVG Export Plug-In . SVG Version: 1.2.0 Build 142)  -->
  <g>
    <g id="Outline">
      <g>
        <path d="M6,25h2c.55225,0,1-.44775,1-1s-.44775-1-1-1h-2c-.55225,0-1,.44775-1,1s.44775,1,1,1Z"/>
        <path d="M11.97949,13.39355c.3635.36349,1.01992.39413,1.41406,0,.39062-.39062.39062-1.02344,0-1.41406l-1.41455-1.41455c-.39062-.39062-1.02344-.39062-1.41406,0s-.39062,1.02344,0,1.41406c0,0,1.40959,1.40959,1.41455,1.41455Z"/>
        <path d="M24,9c.55225,0,1-.44775,1-1v-2c0-.55225-.44775-1-1-1s-1,.44775-1,1v2c0,.55225.44775,1,1,1Z"/>
        <path d="M37.43506,10.56494c-.39062-.39062-1.02344-.39062-1.41406,0l-1.41455,1.41455c-.39057.39051-.39062,1.02321-.00022,1.41385.38806.38829,1.02903.38545,1.41428.00022l1.41455-1.41455c.39062-.39062.39062-1.02344,0-1.41406Z"/>
        <path d="M40,25h2c.55225,0,1-.44775,1-1s-.44775-1-1-1h-2c-.55225,0-1,.44775-1,1s.44775,1,1,1Z"/>
        <path d="M40,27h-3.35999c.22998-.97003.35999-1.98004.35999-3,0-7.17004-5.83002-13-13-13s-13,5.82996-13,13c0,1.01996.13,2.02997.35999,3h-3.35999c-1.65002,0-3,1.34998-3,3s1.34998,3,3,3h32c1.65002,0,3-1.35004,3-3s-1.34998-3-3-3ZM24,13c6.07001,0,11,4.92999,11,11,0,1.02997-.15002,2.02997-.42999,3H13.42999c-.27997-.97003-.42999-1.97003-.42999-3,0-6.07001,4.92999-11,11-11ZM40,31H8c-.54999,0-1-.45001-1-1s.45001-1,1-1h32c.54999,0,1,.45001,1,1s-.45001,1-1,1Z"/>
        <path d="M36,35H12c-1.6543,0-3,1.3457-3,3s1.3457,3,3,3h24c1.6543,0,3-1.3457,3-3s-1.3457-3-3-3ZM36,39H12c-.55127,0-1-.44873-1-1s.44873-1,1-1h24c.55127,0,1,.44873,1,1s-.44873,1-1,1Z"/>
        <path d="M16,25c.55225,0,1-.44775,1-1,0-3.85986,3.14014-7,7-7,.55225,0,1-.44775,1-1s-.44775-1-1-1c-4.9624,0-9,4.0376-9,9,0,.55225.44775,1,1,1Z"/>
      </g>
    </g>
  </g>
</svg>