<?xml version="1.0" encoding="utf-8"?>
<!-- Generator: Adobe Illustrator 28.2.0, SVG Export Plug-In . SVG Version: 6.00 Build 0)  -->
<svg version="1.1" id="Outline" xmlns="http://www.w3.org/2000/svg" xmlns:xlink="http://www.w3.org/1999/xlink" x="0px" y="0px"
	 viewBox="0 0 64 64" enable-background="new 0 0 64 64" xml:space="preserve">
<path d="M49,16.99858H26.01001l-4.91003-8.5C20.28003,7.06859,18.44,6.57854,17,7.39854
	c-1.42999,0.82001-1.91998,2.66003-1.09998,4.10004l3.17999,5.5H15c-0.54999,0-1,0.45001-1,1v4c0,0.54999,0.45001,1,1,1h1.06
	L18,52.06859c0.03998,0.51996,0.46997,0.92999,1,0.92999h1v3c0,0.54999,0.45001,1,1,1h22c0.54999,0,1-0.45001,1-1v-3h1
	c0.53003,0,0.96002-0.41003,1-0.92999l0.79999-12c0.03003-0.55005-0.38-1.03003-0.92999-1.07001
	c-0.53998-0.02002-1.02997,0.38-1.07001,0.92999l-0.20001,3.07001h-6.95996c-0.23004,0-0.45001,0.07996-0.63,0.21997
	c-1.41003,1.15002-3.19,1.78003-5.01001,1.78003s-3.59998-0.63-5.01001-1.78003c-0.17999-0.14001-0.39996-0.21997-0.63-0.21997
	h-6.95996l-0.80005-12h7.76001c0.23004,0,0.45001-0.08002,0.63-0.22003c1.41003-1.14996,3.19-1.77997,5.01001-1.77997
	s3.59998,0.63,5.01001,1.77997c0.17999,0.14001,0.39996,0.22003,0.63,0.22003h7.76001l-0.33002,4.92999
	c-0.03003,0.54999,0.38,1.02997,0.92999,1.07001h0.07001c0.52002,0,0.96002-0.41003,1-0.92999l0.87-13.07001H49
	c0.54999,0,1-0.45001,1-1v-4C50,17.44859,49.54999,16.99858,49,16.99858z M42,54.99858H22v-2h20V54.99858z M26.02002,44.99858
	c1.70996,1.28998,3.82001,2,5.97998,2s4.27002-0.71002,5.97998-2h6.48004l-0.40002,6H19.94l-0.40002-6H26.02002z M17.64001,10.49858
	c-0.28003-0.48004-0.12-1.09003,0.35999-1.35999c0.47998-0.28003,1.09003-0.12006,1.35999,0.35999l4.34003,7.5h-2.31
	L17.64001,10.49858z M48,20.99858H33c-0.54999,0-1,0.45001-1,1s0.45001,1,1,1h12.92999l-0.39996,6h-7.55005
	c-1.70996-1.29004-3.82001-2-5.97998-2s-4.27002,0.70996-5.97998,2h-7.55005l-0.39996-6H29c0.54999,0,1-0.45001,1-1s-0.45001-1-1-1
	H16v-2h32V20.99858z"/>
</svg>
