<?xml version="1.0" encoding="utf-8"?>
<!-- Generator: Adobe Illustrator 28.2.0, SVG Export Plug-In . SVG Version: 6.00 Build 0)  -->
<svg version="1.1" id="Outline" xmlns="http://www.w3.org/2000/svg" xmlns:xlink="http://www.w3.org/1999/xlink" x="0px" y="0px"
	 viewBox="0 0 64 64" enable-background="new 0 0 64 64" xml:space="preserve">
<g>
	<path d="M25.00611,52.03323c0.40413,0.37032,1.04416,0.34027,1.41308-0.06152c0.37305-0.40723,0.3457-1.03955-0.06152-1.41309
		c-3.13867-2.87695-5.24316-6.60986-6.08545-10.7959c-0.10889-0.54199-0.64014-0.89258-1.17773-0.7832
		c-0.5415,0.10889-0.89209,0.63623-0.7832,1.17773C19.23804,44.76122,21.55294,48.86811,25.00611,52.03323z"/>
	<path d="M41.69367,54.97995c-1.44,1.33002-3.26001,1.99005-5.08002,1.99005c-1.63,0-3.26001-0.53003-4.60999-1.59003
		c-2.87,2.23999-6.96002,2.12-9.70001-0.40997c-6.42999-5.88-9.45996-14.54004-8.11999-23.16003
		c0.09003-0.54999,0.60999-0.91998,1.14001-0.83997c0.54999,0.08997,0.91998,0.59998,0.83996,1.13995
		c-1.23999,7.96002,1.56,15.96002,7.5,21.39001c2.18005,2.02002,5.53003,1.94,7.63-0.15997
		c0.39001-0.39001,1.03003-0.39001,1.42004,0c2.09998,2.09998,5.44995,2.16998,7.63,0.15997
		c5.25-4.79999,8.04999-11.56,7.75995-18.64996c-0.87-0.21002-1.63995-0.70001-2.19995-1.38
		c-0.58002,0.31995-1.23004,0.48999-1.90002,0.48999c-1.44,0-2.76001-0.79004-3.46002-2.03003
		c-1.98999-0.22998-3.53998-1.91998-3.53998-3.96997c0-0.71002,0.19-1.39001,0.54999-2c-0.35999-0.60999-0.54999-1.29004-0.54999-2
		c0-1.16003,0.51001-2.23004,1.34003-2.97003c-1.88,0.10004-3.69,0.89001-5.03003,2.23999l-0.59998,0.60004
		c-0.39001,0.39001-1.03003,0.39001-1.42004,0l-0.59998-0.60004c-2.08002-2.08997-5.12-2.81-7.90997-1.87
		c-2.72003,0.91003-4.20001,3.22003-4.97003,5.01001c-0.27997,0.64001-0.51001,1.27002-0.71997,1.90002
		c-0.17004,0.52997-0.74005,0.81-1.26001,0.64001c-0.53003-0.17004-0.81-0.74005-0.64001-1.26001
		c0.22998-0.69,0.47998-1.37,0.77997-2.07001c0.93005-2.16003,2.75-4.97003,6.17004-6.12
		c3.06-1.02002,6.32996-0.47003,8.85999,1.39996V14.03c0-3.86005,3.14001-7,7-7h2c0.54999,0,1,0.44995,1,1v2
		c0,1.03998-0.21997,2.03998-0.66998,2.95996c-0.23999,0.5-0.83002,0.71002-1.33002,0.47003s-0.71002-0.83002-0.46997-1.33002
		c0.31-0.65002,0.46997-1.35999,0.46997-2.09998v-1h-1c-2.76001,0-5,2.23999-5,5v1h1c0.77002,0,1.51001-0.17004,2.19-0.51001
		c0.48999-0.23999,1.09003-0.04004,1.34003,0.45996c0.23999,0.49005,0.03998,1.09003-0.46002,1.34003
		C36.11366,16.78995,35.08369,17.03,34.00367,17.03h-1v3.83997c2.07001-1.51996,4.71002-2.19,7.31-1.77997
		c0.28003,0.04999,0.53998,0.21997,0.69,0.46997c0.15002,0.23999,0.19,0.54999,0.09998,0.83002
		c-0.06995,0.21002-0.09998,0.39996-0.09998,0.57001c0.08002,0.47998-0.19,0.95996-0.65002,1.12
		c-0.81,0.28998-1.34998,1.03998-1.34998,1.88c0,0.48999,0.19,0.95996,0.52002,1.32996c0.34998,0.38,0.34998,0.96002,0,1.34003
		c-0.33002,0.37-0.52002,0.84003-0.52002,1.33002c0,1.09998,0.90002,2,2,2c0.48999-0.08002,0.96002,0.19,1.12,0.64996
		c0.28998,0.81,1.03998,1.35004,1.88,1.35004c0.54999,0,1.08002-0.23999,1.45001-0.65002c0.23999-0.25,0.58997-0.37,0.92999-0.29999
		c0.33997,0.06,0.62,0.29999,0.75,0.63c0.29999,0.79999,1.02997,1.32001,1.87,1.32001c0.52002,0,1.01001,0.39996,1.04999,0.92999
		C50.65369,41.88998,47.60365,49.56998,41.69367,54.97995z"/>
</g>
</svg>
