<?xml version="1.0" encoding="utf-8"?>
<!-- Generator: Adobe Illustrator 28.2.0, SVG Export Plug-In . SVG Version: 6.00 Build 0)  -->
<svg version="1.1" id="Outline" xmlns="http://www.w3.org/2000/svg" xmlns:xlink="http://www.w3.org/1999/xlink" x="0px" y="0px"
	 viewBox="0 0 64 64" enable-background="new 0 0 64 64" xml:space="preserve">
<g>
	<path d="M56,31h-2.46997C53.62,29.95996,53.69,28.95001,53.69,28c0-0.54999-0.45001-1-1-1s-1,0.45001-1,1
		c0,0.94-0.07001,1.95001-0.16998,3H39.95001C39.97998,30.67999,40,30.34998,40,30c0-1.57001-0.34003-3.60999-0.95001-5.64001
		C39.87,20.73999,42.01001,20,45.19,20c3.15002,0,5.27002,0.70996,6.12,4.22998c0.13,0.53998,0.66998,0.87,1.20001,0.73999
		c0.53998-0.13,0.87-0.66998,0.73999-1.20001c-0.62-2.59998-1.89001-4.03998-3.39001-4.83997
		c0.85004-0.59003,1.69-1.41998,2.42004-2.46002c0.92999-1.33997,1.52997-2.81,1.67999-4.14996
		c0.17999-1.56-0.26001-2.79004-1.23004-3.47003c-1.20996-0.84998-2.98999-0.56-4.69,0.66003
		C47.33002,7.96997,46.17999,7,44.84998,7C43.51001,7,42.37,7.96997,41.65002,9.51001C39.95001,8.28998,38.16998,8,36.96002,8.84998
		c-0.97003,0.67999-1.41003,1.91003-1.23004,3.47003c0.15002,1.33997,0.75,2.81,1.69,4.14996
		c0.82001,1.17004,1.77002,2.08002,2.73999,2.67999c-0.84998,0.52002-1.59998,1.28003-2.19,2.36005
		C36.58002,18.46997,34.53003,16,32,16s-4.58002,2.46997-5.96997,5.51001c-0.59003-1.08002-1.34003-1.84003-2.19-2.36005
		c0.96997-0.59998,1.91998-1.50995,2.73999-2.67999c0.94-1.33997,1.53998-2.81,1.69-4.14996
		c0.17999-1.56-0.26001-2.79004-1.23004-3.47003c-1.20996-0.84998-2.98999-0.56-4.69,0.66003C21.63,7.96997,20.48999,7,19.15002,7
		c-1.33002,0-2.48004,0.96997-3.19,2.51001C14.26001,8.28998,12.47998,8,11.27002,8.84998
		c-0.97003,0.67999-1.41003,1.91003-1.23004,3.47003c0.15002,1.33997,0.75,2.81,1.69,4.14996
		c0.72003,1.04004,1.55005,1.85999,2.40002,2.45001C11.91998,20.07996,10.31,22.60999,10.31,28c0,0.95001,0.07001,1.95996,0.15997,3
		H8c-0.54999,0-1,0.45001-1,1v9.44C7,47.28998,11.35999,52.12,17,52.88V56c0,0.54999,0.45001,1,1,1h28c0.54999,0,1-0.45001,1-1
		v-3.12c5.64001-0.76001,10-5.59003,10-11.44V32C57,31.45001,56.54999,31,56,31z M48.84998,13.5
		c0-0.69-0.06-1.34003-0.16998-1.95001c1.22003-1.09003,2.40002-1.40997,2.90002-1.06
		c0.33997,0.22998,0.47998,0.83002,0.39996,1.60999c-0.12,0.98999-0.60999,2.16998-1.33997,3.22998
		c-0.88,1.25-1.87,2.02002-2.71002,2.39001C48.51001,16.59998,48.84998,15.14001,48.84998,13.5z M44.84998,9c0.81,0,2,1.75,2,4.5
		c0,2.20996-0.76995,3.74999-1.49007,4.28002C45.2403,17.868,45.00375,18,44.84998,18c-0.81995,0-2-1.75-2-4.5
		S44.03003,9,44.84998,9z M39.06,15.32996c-0.73999-1.06-1.22998-2.23999-1.34003-3.22998
		c-0.08997-0.77997,0.06006-1.38,0.39001-1.60999c0.5-0.34998,1.67999-0.03003,2.91003,1.06
		C40.90997,12.15997,40.84998,12.81,40.84998,13.5c0,1.64001,0.33002,3.09998,0.91003,4.21997
		C40.92999,17.34998,39.92999,16.57996,39.06,15.32996z M32,18c2.90002,0,6,7.03998,6,12c0,0.34998-0.02002,0.67999-0.06,1h-2.5
		c0.34998-0.59003,0.56-1.27002,0.56-2c0-2.21002-1.78998-4-4-4s-4,1.78998-4,4c0,0.72998,0.21002,1.40997,0.56,2h-2.5
		C26.02002,30.67999,26,30.34998,26,30C26,25.03998,29.09998,18,32,18z M34,29c0,1.09998-0.90002,2-2,2s-2-0.90002-2-2
		c0-1.10004,0.90002-2,2-2S34,27.89996,34,29z M23.15002,13.5c0-0.69-0.06-1.34003-0.17004-1.95001
		c1.23004-1.09003,2.41003-1.40997,2.91003-1.06c0.32996,0.22998,0.47998,0.83002,0.39001,1.60999
		c-0.11005,0.98999-0.60004,2.16998-1.33002,3.22998c-0.88,1.25-1.88,2.02002-2.71002,2.39001
		C22.82001,16.59998,23.15002,15.14001,23.15002,13.5z M19.15002,9c0.81995,0,2,1.75,2,4.5s-1.18005,4.5-2,4.5c-0.81,0-2-1.75-2-4.5
		S18.34003,9,19.15002,9z M13.35999,15.32996c-0.72998-1.06-1.21997-2.23999-1.33997-3.22998
		c-0.08002-0.77997,0.06-1.38,0.39996-1.60999c0.5-0.34998,1.67999-0.03003,2.90002,1.06
		C15.21002,12.15997,15.15002,12.81,15.15002,13.5c0,1.64001,0.33997,3.09998,0.91998,4.21997
		C15.22998,17.34998,14.23999,16.57996,13.35999,15.32996z M17.97998,20.01996c0.01001,0,0.01001,0,0.02002,0
		C18.26001,20.01001,18.53998,20,18.81,20c3.17999,0,5.32001,0.73999,6.14001,4.35999C24.34003,26.39001,24,28.42999,24,30
		c0,0.34998,0.02002,0.67999,0.04999,1H12.47998C12.38,29.95001,12.31,28.94,12.31,28
		C12.31,21.21997,14.90002,20.14996,17.97998,20.01996z M45,55H19v-2h26V55z M55,35H25c-0.54999,0-1,0.45001-1,1s0.45001,1,1,1h30
		v4.44c0,5.26996-4.28998,9.56-9.56,9.56H18.56C13.28998,51,9,46.70996,9,41.44V37h12c0.54999,0,1-0.45001,1-1s-0.45001-1-1-1H9v-2
		h46V35z"/>
	<path d="M18.55566,47C15.49219,47,13,44.50781,13,41.44434c0-0.55273-0.44775-1-1-1s-1,0.44727-1,1
		C11,45.61035,14.38965,49,18.55566,49c0.55225,0,1-0.44727,1-1S19.10791,47,18.55566,47z"/>
</g>
</svg>
