<?xml version="1.0" encoding="UTF-8"?>
<svg xmlns="http://www.w3.org/2000/svg" version="1.1" viewBox="0 0 48 48">
  <!-- Generator: Adobe Illustrator 28.7.1, SVG Export Plug-In . SVG Version: 1.2.0 Build 142)  -->
  <g>
    <g id="Outline">
      <g>
        <path d="M24,5C13.52344,5,5,13.52344,5,24s8.52344,19,19,19,19-8.52344,19-19S34.47656,5,24,5ZM24,41c-9.37402,0-17-7.62598-17-17S14.62598,7,24,7s17,7.62598,17,17-7.62598,17-17,17Z"/>
        <path d="M24,9c-8.271,0-15,6.729-15,15s6.729,15,15,15,15-6.729,15-15-6.729-15-15-15ZM24,37c-7.16846,0-13-5.83154-13-13s5.83154-13,13-13,13,5.83154,13,13-5.83154,13-13,13Z"/>
        <path d="M16,20c.55225,0,1-.44775,1-1,0-1.10303.89697-2,2-2s2,.89697,2,2c0,.55225.44775,1,1,1s1-.44775,1-1c0-2.20557-1.79443-4-4-4s-4,1.79443-4,4c0,.55225.44775,1,1,1Z"/>
        <path d="M29,15c-2.20557,0-4,1.79443-4,4,0,.55225.44775,1,1,1s1-.44775,1-1c0-1.10303.89697-2,2-2s2,.89697,2,2c0,.55225.44775,1,1,1s1-.44775,1-1c0-2.20557-1.79443-4-4-4Z"/>
        <path d="M30.70703,27.29297c-.39062-.39062-1.02344-.39062-1.41406,0s-.39062,1.02344,0,1.41406l.25055.25055c-3.23218,2.57861-7.85486,2.57861-11.08704,0l.25055-.25055c.39062-.39062.39062-1.02344,0-1.41406s-1.02344-.39062-1.41406,0l-2,2c-.39062.39062-.39062,1.02344.00004,1.4141.38839.38834,1.0247.38928,1.41402-.00004l.3288-.3288c2.01172,1.6745,4.48663,2.5163,6.96417,2.5163s4.95245-.8418,6.96417-2.5163c0,0,.3288.3288.3289.3289.38878.38867,1.02604.38781,1.41396-.00011.39062-.39062.39062-1.02344,0-1.41406l-2-2Z"/>
      </g>
    </g>
  </g>
</svg>