<?xml version="1.0" encoding="utf-8"?>
<!-- Generator: Adobe Illustrator 28.2.0, SVG Export Plug-In . SVG Version: 6.00 Build 0)  -->
<svg version="1.1" id="Outline" xmlns="http://www.w3.org/2000/svg" xmlns:xlink="http://www.w3.org/1999/xlink" x="0px" y="0px"
	 viewBox="0 0 64 64" enable-background="new 0 0 64 64" xml:space="preserve">
<g>
	<path d="M42,15.00126c0.54999,0,1-0.45001,1-1V8.99125c0-0.47998-0.34003-0.89001-0.79999-0.97998
		c-6.77002-1.35004-13.63-1.35004-20.40002,0C21.34003,8.10123,21,8.51127,21,8.99125v5.01001c0,0.54999,0.45001,1,1,1h1v4h-1
		c-0.54999,0-1,0.45001-1,1v6c0,0.54999,0.45001,1,1,1c1.09998,0,2,0.89996,2,2c0,1.09998-0.90002,2-2,2c-0.54999,0-1,0.45001-1,1
		v22c0,1.64996,1.34998,3,3,3h16c1.65002,0,3-1.35004,3-3v-12c0-0.54999-0.45001-1-1-1s-1,0.45001-1,1v12c0,0.54999-0.45001,1-1,1
		H24c-0.54999,0-1-0.45001-1-1v-21.13c1.71997-0.44,3-2.01001,3-3.87s-1.28003-3.42999-3-3.87v-4.13h18v4.13
		c-1.71997,0.44-3,2.01001-3,3.87s1.28003,3.42999,3,3.87v5.13c0,0.54999,0.45001,1,1,1s1-0.45001,1-1v-6c0-0.54999-0.45001-1-1-1
		c-1.09998,0-2-0.90002-2-2c0-1.10004,0.90002-2,2-2c0.54999,0,1-0.45001,1-1v-6c0-0.54999-0.45001-1-1-1h-1v-4H42z M34,13.00126
		c-0.54999,0-1,0.45001-1,1s0.45001,1,1,1h5v4H25v-4h5c0.54999,0,1-0.45001,1-1s-0.45001-1-1-1h-7V9.82127
		c5.97998-1.10004,12.02002-1.10004,18,0v3.17999H34z"/>
	<path d="M33,37.00126v13c0,1.6543,1.3457,3,3,3s3-1.3457,3-3v-13c0-1.6543-1.3457-3-3-3S33,35.34696,33,37.00126z M37,37.00126v13
		c0,0.55127-0.44824,1-1,1s-1-0.44873-1-1v-13c0-0.55127,0.44824-1,1-1S37,36.44999,37,37.00126z"/>
</g>
</svg>
