<?xml version="1.0" encoding="UTF-8"?>
<svg xmlns="http://www.w3.org/2000/svg" version="1.1" viewBox="0 0 48 48">
  <!-- Generator: Adobe Illustrator 28.7.1, SVG Export Plug-In . SVG Version: 1.2.0 Build 142)  -->
  <g>
    <g id="Outline">
      <g>
        <path d="M28.40039,15.68359l-2.17969-.9541,1.84761-3.23331c.37198-.65097-.12316-1.49618-.86812-1.49618h-4.7998c-.40039,0-.76172.23828-.91895.60645l-2.40039,5.59961c-.2168.50488.01465,1.08984.51758,1.30957l2.44238,1.06836-1.41602,6.19336c-.10547.45898.12402.92871.55081,1.12794.4202.1995.93821.07036,1.2197-.29884l6.40037-8.40036c.38831-.50965.18741-1.26748-.39548-1.52249ZM23.60449,20.71875l.57031-2.49609c.10742-.46777-.13379-.94629-.57324-1.13867l-2.29102-1.00293,1.74902-4.08105h2.41699l-1.54492,2.7041c-.14062.24609-.16992.54102-.08105.81055s.28809.48828.54883.60156l2.03418.88965-2.8291,3.71289Z"/>
        <path d="M24,5c-7.16998,0-13,5.82996-13,13,0,5.26001,3.19,10,8,12v6c0,1.29999.84003,2.39996,2,2.82001v1.17999c0,1.64996,1.34998,3,3,3s3-1.35004,3-3v-1.17999c1.15997-.42004,2-1.52002,2-2.82001v-6c4.81-2,8-6.73999,8-12,0-7.17004-5.83002-13-13-13ZM25,40c0,.54999-.45001,1-1,1s-1-.45001-1-1v-1h2v1ZM27,36c0,.54999-.45001,1-1,1h-4c-.54999,0-1-.45001-1-1v-1h6v1ZM27,33h-6v-2h6v2ZM27.66998,28.37c-.29999.09998-.52997.33997-.62.63h-6.09998c-.09003-.29004-.32001-.53003-.62-.63-4.38-1.54999-7.33002-5.71002-7.33002-10.37,0-6.07001,4.92999-11,11-11s11,4.92999,11,11c0,4.65997-2.95001,8.82001-7.33002,10.37Z"/>
        <path d="M8,29h-2c-.55273,0-1,.44727-1,1s.44727,1,1,1h2c.55273,0,1-.44727,1-1s-.44727-1-1-1Z"/>
        <path d="M10,29c.55273,0,1-.44727,1-1v-2c0-.55273-.44727-1-1-1s-1,.44727-1,1v2c0,.55273.44727,1,1,1Z"/>
        <path d="M14,29h-2c-.55273,0-1,.44727-1,1s.44727,1,1,1h2c.55273,0,1-.44727,1-1s-.44727-1-1-1Z"/>
        <path d="M10,31c-.55273,0-1,.44727-1,1v2c0,.55273.44727,1,1,1s1-.44727,1-1v-2c0-.55273-.44727-1-1-1Z"/>
        <path d="M36,37h-2c-.55273,0-1,.44727-1,1s.44727,1,1,1h2c.55273,0,1-.44727,1-1s-.44727-1-1-1Z"/>
        <path d="M37,36c0,.55273.44727,1,1,1s1-.44727,1-1v-2c0-.55273-.44727-1-1-1s-1,.44727-1,1v2Z"/>
        <path d="M42,37h-2c-.55273,0-1,.44727-1,1s.44727,1,1,1h2c.55273,0,1-.44727,1-1s-.44727-1-1-1Z"/>
        <path d="M38,39c-.55273,0-1,.44727-1,1v2c0,.55273.44727,1,1,1s1-.44727,1-1v-2c0-.55273-.44727-1-1-1Z"/>
      </g>
    </g>
  </g>
</svg>