<?xml version="1.0" encoding="UTF-8"?>
<svg xmlns="http://www.w3.org/2000/svg" version="1.1" viewBox="0 0 48 48">
  <!-- Generator: Adobe Illustrator 28.7.1, SVG Export Plug-In . SVG Version: 1.2.0 Build 142)  -->
  <g>
    <g id="Outline">
      <path d="M24,5c-4.48999,0-8,7.46997-8,17,0,8.81,3,15.83997,7,16.85999v3.14001c0,.54999.45001,1,1,1s1-.45001,1-1v-3.14001c4-1.02002,7-8.04999,7-16.85999,0-9.53003-3.51001-17-8-17ZM23,12.58997l-.28998-.29999c-.39001-.39001-1.03003-.39001-1.42004,0-.38995.39001-.38995,1.03003,0,1.41998l1.71002,1.70001v2.17999l-1.28998-1.29999c-.39001-.39001-1.03003-.39001-1.42004,0-.38995.39001-.38995,1.03003,0,1.41998l2.71002,2.70001v2.17999l-1.28998-1.29999c-.39001-.39001-1.03003-.39001-1.42004,0-.38995.39001-.38995,1.03003,0,1.41998l2.71002,2.70001v2.17999l-1.28998-1.29999c-.39001-.39001-1.03003-.39001-1.42004,0-.38995.39001-.38995,1.03003,0,1.41998l2.71002,2.70001v2.17999l-.28998-.29999c-.39001-.39001-1.03003-.39001-1.42004,0-.38995.39001-.38995,1.03003,0,1.41998l1.71002,1.70001v1.34003c-2.53003-1.23004-5-6.94-5-14.75s2.46997-13.52002,5-14.75v5.33997ZM25,36.75v-1.34003l1.71002-1.70001c.38995-.38995.38995-1.02997,0-1.41998-.39001-.39001-1.03003-.39001-1.42004,0l-.28998.29999v-2.17999l2.71002-2.70001c.38995-.38995.38995-1.02997,0-1.41998-.39001-.39001-1.03003-.39001-1.42004,0l-1.28998,1.29999v-2.17999l2.71002-2.70001c.38995-.38995.38995-1.02997,0-1.41998-.39001-.39001-1.03003-.39001-1.42004,0l-1.28998,1.29999v-2.17999l2.71002-2.70001c.38995-.38995.38995-1.02997,0-1.41998-.39001-.39001-1.03003-.39001-1.42004,0l-1.28998,1.29999v-2.17999l1.71002-1.70001c.38995-.38995.38995-1.02997,0-1.41998-.39001-.39001-1.03003-.39001-1.42004,0l-.28998.29999v-5.33997c2.53003,1.22998,5,6.94,5,14.75s-2.46997,13.51996-5,14.75Z"/>
    </g>
  </g>
</svg>