<?xml version="1.0" encoding="UTF-8"?>
<svg xmlns="http://www.w3.org/2000/svg" version="1.1" viewBox="0 0 48 48">
  <!-- Generator: Adobe Illustrator 28.7.1, SVG Export Plug-In . SVG Version: 1.2.0 Build 142)  -->
  <g>
    <g id="Outline">
      <g>
        <path d="M37,35c-.10999,0-.22998,0-.34003.01001-.81995-2.37-3.06995-4.01001-5.65997-4.01001-.75,0-1.5.14001-2.19.41998-.91998-1.25-2.28998-2.07001-3.81-2.33002v-8.09998c1.59003-.02002,4.60999-.35999,6.62-2.37,2.77002-2.77002,2.37-7.48999,2.34998-7.69-.03998-.47998-.41998-.85999-.89996-.90002-.20001-.01996-4.91003-.41998-7.69,2.35004-.13.13995-.26001.28998-.38.42999v-6.81c0-.54999-.45001-1-1-1s-1,.45001-1,1v1.81c-.12-.14001-.25-.29004-.38-.42999-2.77002-2.77002-7.48999-2.37-7.69-2.35004-.47998.04004-.85999.42004-.89996.90002-.02002.20001-.42004,4.91998,2.34998,7.69,2.01001,2.01001,5.02997,2.34998,6.62,2.37v3.32001c-.12-.14001-.25-.29004-.38-.42999-2.77002-2.77002-7.48999-2.37-7.69-2.35004-.47998.04004-.85999.42004-.89996.90002-.02002.20001-.42004,4.91998,2.34998,7.69,2.01001,2.01001,5.02997,2.34998,6.62,2.37v1.59998c-1.52002.26001-2.89001,1.08002-3.81,2.33002-.69-.27997-1.44-.41998-2.19-.41998-2.59003,0-4.84003,1.64001-5.65997,4.01001-.11005-.01001-.23004-.01001-.34003-.01001-3.31,0-6,2.69-6,6,0,.42999.03998.83997.12,1.20996.09998.46002.51001.79004.97998.79004h35.80005c.46997,0,.88-.33002.97998-.79004.08002-.37.12-.77997.12-1.20996,0-3.31-2.69-6-6-6ZM26.79999,13.79999c1.48999-1.48999,3.90002-1.76001,5.20001-1.79999-.03003,1.29999-.29999,3.70996-1.79999,5.20001-1,1.00995-2.41998,1.44995-3.63,1.64996l2.14001-2.14001c.38995-.38995.38995-1.02997,0-1.41998-.39001-.39001-1.03003-.39001-1.42004,0l-2.13995,2.15002c.19-1.22003.63995-2.63,1.64996-3.64001ZM19.28998,11.70996l2.14001,2.14001c-1.21002-.20001-2.63-.64001-3.63-1.64996-1.48999-1.49005-1.76001-3.90002-1.79999-5.20001,1.29999.03998,3.71002.31,5.20001,1.79999,1,1,1.45001,2.41998,1.64996,3.63l-2.13995-2.14001c-.39001-.39001-1.03003-.39001-1.42004,0-.38995.39001-.38995,1.03003,0,1.41998ZM19.28998,23.20996l2.14001,2.14001c-1.21002-.20001-2.63-.64001-3.63-1.64996-1.48999-1.49005-1.76001-3.90002-1.79999-5.20001,1.29999.03998,3.71002.31,5.20001,1.79999,1,1,1.45001,2.41998,1.64996,3.63l-2.13995-2.14001c-.39001-.39001-1.03003-.39001-1.42004,0-.38995.39001-.38995,1.03003,0,1.41998ZM7,41c0-2.21002,1.78998-4,4-4,.28998,0,.58002.02997.85999.08997.26001.06.54004.01001.77002-.13995.22998-.15002.39001-.39001.42999-.66003.34003-1.90997,1.98999-3.28998,3.94-3.28998.72998,0,1.41998.19,2.04999.57001.23004.13995.52002.17999.78003.09998.26996-.07001.48999-.26001.62-.5.69-1.34003,2.04999-2.16998,3.54999-2.16998s2.85999.82996,3.54999,2.16998c.13.23999.35004.42999.62.5.26001.08002.54999.03998.78003-.09998.63-.38,1.32001-.57001,2.04999-.57001,1.95001,0,3.59998,1.38,3.94,3.28998.03998.27002.20001.51001.42999.66003.22998.14996.51001.20996.77002.13995.27997-.06.57001-.08997.85999-.08997,2.21002,0,4,1.78998,4,4H7Z"/>
        <path d="M31,35c-.55225,0-1.00244.43945-1.00244.99121,0,.55273.44531.99219.99756.99219.08496.48535.50732.82715.98389.82715.05713,0,.11523-.00488.17383-.01465.54395-.0957.90771-.61426.81201-1.1582-.16357-.93359-1.0083-1.6377-1.96484-1.6377Z"/>
        <path d="M24,33.01367c-.75488,0-1.43457.41113-1.77393,1.07227-.25195.49219-.06348,1.09473.42773,1.34668.146.0752.30176.11035.45459.11035.36133,0,.70898-.19824.88623-.54297.25146.48926.854.68555,1.34619.43262.49121-.25195.68506-.85449.43311-1.34668-.33936-.66113-1.01953-1.07227-1.77393-1.07227Z"/>
        <path d="M18.01611,35.28223c-.55469-.33203-1.24561-.36816-1.84766-.09277-.59863.27246-1.02197.81445-1.1333,1.44824-.0957.54395.25879,1.06934.80273,1.16504.05957.00977.11816.01465.17627.01465.47412,0,.8877-.33594.97266-.82031.47363.2832,1.08789.13086,1.37207-.34277s.13086-1.08789-.34277-1.37207Z"/>
        <path d="M12,28h2c.55225,0,1-.44727,1-1s-.44775-1-1-1h-2c-.55225,0-1,.44727-1,1s.44775,1,1,1Z"/>
        <path d="M10,28c-.55225,0-1,.44727-1,1v2c0,.55273.44775,1,1,1s1-.44727,1-1v-2c0-.55273-.44775-1-1-1Z"/>
        <path d="M6,28h2c.55225,0,1-.44727,1-1s-.44775-1-1-1h-2c-.55225,0-1,.44727-1,1s.44775,1,1,1Z"/>
        <path d="M10,26c.55225,0,1-.44727,1-1v-2c0-.55273-.44775-1-1-1s-1,.44727-1,1v2c0,.55273.44775,1,1,1Z"/>
        <path d="M33,21c0,.55273.44775,1,1,1h2c.55225,0,1-.44727,1-1s-.44775-1-1-1h-2c-.55225,0-1,.44727-1,1Z"/>
        <path d="M38,22c-.55225,0-1,.44727-1,1v2c0,.55273.44775,1,1,1s1-.44727,1-1v-2c0-.55273-.44775-1-1-1Z"/>
        <path d="M40,22h2c.55225,0,1-.44727,1-1s-.44775-1-1-1h-2c-.55225,0-1,.44727-1,1s.44775,1,1,1Z"/>
        <path d="M38,20c.55225,0,1-.44727,1-1v-2c0-.55273-.44775-1-1-1s-1,.44727-1,1v2c0,.55273.44775,1,1,1Z"/>
      </g>
    </g>
  </g>
</svg>