<?xml version="1.0" encoding="utf-8"?>
<!-- Generator: Adobe Illustrator 28.2.0, SVG Export Plug-In . SVG Version: 6.00 Build 0)  -->
<svg version="1.1" id="Outline" xmlns="http://www.w3.org/2000/svg" xmlns:xlink="http://www.w3.org/1999/xlink" x="0px" y="0px"
	 viewBox="0 0 64 64" enable-background="new 0 0 64 64" xml:space="preserve">
<g>
	<path d="M57.00985,29.05029c0-3.86914-3.40137-4.32959-7.70752-4.91211l-1.15332-0.1582
		c-0.5459-0.07715-1.05273,0.30469-1.12939,0.85107c-0.07666,0.54688,0.3042,1.05273,0.85107,1.12939l1.16357,0.15967
		c4.66797,0.63171,5.9209,1.00549,5.9707,2.81781c-0.23187,0.9798-0.53967,1.92792-0.9115,2.84241
		c-2.81085,4.14319-11.78375,7.26996-22.08362,7.26996c-12.46729,0-23-4.57959-23-10s10.53271-10,23-10
		c1.90771,0,3.92871,1.5625,5.88281,3.07324c1.67188,1.29248,3.25098,2.51318,4.8877,2.8999
		c0.32373,0.07649,0.70255,0.16739,1.05029,0.23096c0.54541,0.09863,1.06445-0.26221,1.16309-0.80469
		c0.09863-0.54346-0.26172-1.06396-0.80469-1.16309c-0.31875-0.05819-0.63403-0.1347-0.94922-0.20947
		c-1.21533-0.28711-2.62793-1.37939-4.12402-2.53613c-2.21973-1.71631-4.51514-3.49072-7.10596-3.49072c-14.01856,0-25,5.271-25,12
		c0,0.37993-0.06899,0.95547,0.05127,1.31591l0.58984,1.771c2.33301,6.98682,7.9834,12.22949,15.11475,14.02295
		c0.08203,0.02051,0.16406,0.03027,0.24512,0.03027c0.44727,0,0.85449-0.30225,0.96875-0.75586
		c0.13477-0.53564-0.19043-1.0791-0.72559-1.21387c-4.71729-1.18646-8.71319-4.04236-11.35467-7.95721
		c4.51813,2.92413,11.77746,4.7868,20.11053,4.7868c7.66504,0,14.41669-1.57825,18.9671-4.10663
		c-2.82739,3.37018-6.76562,5.76624-11.26398,6.62421l-5.45605,1.03955c-1.57031,0.29199-3.13867,0.39893-4.66211,0.31445
		l-2.52979-0.14014c-0.53906-0.03516-1.02295,0.39209-1.05371,0.94336c-0.03027,0.55127,0.3916,1.02295,0.94336,1.05371
		l2.53027,0.14014c0.37256,0.02051,0.74756,0.03076,1.12451,0.03076c1.32422,0,2.67041-0.12598,4.01758-0.37695l5.46045-1.04004
		c7.15979-1.36554,13.04352-6.25165,15.78503-12.83075C56.61117,31.55469,57.00985,30.3291,57.00985,29.05029z"/>
	<path d="M17.38534,24.26953c-0.43164,0.34473-0.50146,0.97412-0.15625,1.40527l0.87646,1.0957
		c1.87305,2.34131,2.9043,5.28174,2.9043,8.27979c0,0.55225,0.44775,1,1,1s1-0.44775,1-1c0-3.45068-1.18701-6.83447-3.34277-9.52881
		l-0.87646-1.0957C18.44637,23.99414,17.81649,23.92432,17.38534,24.26953z"/>
	<path d="M24.38534,24.26953c-0.43164,0.34473-0.50146,0.97412-0.15625,1.40527l0.87646,1.0957
		c1.87305,2.34131,2.9043,5.28174,2.9043,8.27979c0,0.55225,0.44775,1,1,1s1-0.44775,1-1c0-3.45068-1.18701-6.83447-3.34277-9.52881
		l-0.87646-1.0957C25.44539,23.99414,24.816,23.92432,24.38534,24.26953z"/>
	<path d="M31.38534,24.26953c-0.43164,0.34473-0.50146,0.97412-0.15625,1.40527l0.87647,1.0957
		c1.87305,2.34131,2.9043,5.28174,2.9043,8.27979c0,0.55225,0.44775,1,1,1s1-0.44775,1-1c0-3.45068-1.18701-6.83447-3.34277-9.52881
		l-0.87646-1.0957C32.44588,23.99414,31.81551,23.92432,31.38534,24.26953z"/>
</g>
</svg>
