<?xml version="1.0" encoding="utf-8"?>
<!-- Generator: Adobe Illustrator 28.2.0, SVG Export Plug-In . SVG Version: 6.00 Build 0)  -->
<svg version="1.1" id="Outline" xmlns="http://www.w3.org/2000/svg" xmlns:xlink="http://www.w3.org/1999/xlink" x="0px" y="0px"
	 viewBox="0 0 64 64" enable-background="new 0 0 64 64" xml:space="preserve">
<g>
	<path d="M56.81725,31.42188c-0.18848-0.26709-4.71289-6.58398-11.3457-10.11475c-0.48633-0.25928-1.09375-0.07373-1.35254,0.41309
		c-0.25977,0.4873-0.07422,1.09277,0.41309,1.35254c5.08105,2.70459,8.95605,7.31299,10.2168,8.92725
		c-1.83203,2.34375-9.17871,11-17.74707,11c-6.19434,0-11.72168-4.42676-15.2666-8.14062
		c-0.2373-0.24756-0.5791-0.35645-0.91895-0.29053c-0.33594,0.06689-0.61426,0.30078-0.7373,0.62012
		c-0.55371,1.43262-1.78223,2.89111-3.37109,4.00195c-3.19824,2.24121-6.39355,2.25537-7.36719,0.86523
		c-0.31934-0.45459-0.41602-1.04785-0.29004-1.76367c0.28906-1.63477,1.67773-3.49414,3.62207-4.85205
		c0.30664-0.21289,0.62207-0.39746,0.92773-0.57373c0.30957-0.17822,0.50098-0.50879,0.50098-0.8667
		s-0.19141-0.68848-0.50098-0.8667c-0.30566-0.17627-0.62109-0.36084-0.92676-0.57324
		c-1.94531-1.3584-3.33398-3.21777-3.62305-4.85254c-0.12598-0.71582-0.0293-1.30908,0.28906-1.76318
		c0.97754-1.39258,4.1709-1.37646,7.36914,0.86523c1.58789,1.11035,2.81641,2.56885,3.37012,4.00146
		c0.12305,0.31934,0.40137,0.55322,0.7373,0.62012c0.33984,0.06494,0.68164-0.04346,0.91895-0.29053
		C25.28014,25.42676,30.80749,21,37.00182,21c1.20801,0,2.46289,0.1792,3.73145,0.5332
		c0.52637,0.14697,1.08301-0.16162,1.23145-0.69482c0.14844-0.53174-0.16211-1.0835-0.69434-1.23193
		C39.828,19.2041,38.39147,19,37.00182,19c-6.32813,0-11.89453,4.00439-15.71778,7.75
		c-0.7959-1.3252-1.97656-2.56348-3.42773-3.57861c-3.91602-2.74414-8.37598-2.91064-10.1543-0.375
		c-0.625,0.89209-0.83984,2.01953-0.62012,3.25928C7.45006,28.1416,8.99987,30.34375,11.24987,32
		c-2.25,1.65576-3.7998,3.85791-4.16797,5.94434c-0.21973,1.23975-0.00488,2.36719,0.62109,3.25977
		c1.77637,2.53467,6.23828,2.36914,10.15234-0.375c1.45215-1.01562,2.63281-2.25391,3.42871-3.5791
		C25.10729,40.99561,30.6737,45,37.00182,45c10.88184,0,19.45605-11.91455,19.81543-12.42139
		C57.06335,32.23193,57.06335,31.76807,56.81725,31.42188z"/>
	<path d="M43.29479,34.70703c0.367,0.36697,1.0254,0.38866,1.41406,0l1.29297-1.29297c0,0,1.2898,1.2898,1.29296,1.29296
		c0.36015,0.36015,1.02985,0.38423,1.41407,0.00001c0.39062-0.39062,0.39062-1.02344,0-1.41406L47.41589,32l1.29297-1.29297
		c0.39062-0.39062,0.39062-1.02344,0-1.41406s-1.02344-0.39062-1.41406,0l-1.29297,1.29297l-1.29297-1.29297
		c-0.39062-0.39062-1.02344-0.39062-1.41406,0s-0.39062,1.02344,0,1.41406L44.58776,32l-1.29297,1.29297
		C42.90424,33.68353,42.90417,34.31618,43.29479,34.70703z"/>
	<path d="M36.69225,40.99732c0.25683-0.00003,0.51357-0.09682,0.70704-0.29029c1.78809-1.78906,2.9668-4.04785,3.40723-6.53223
		c0.09668-0.54395-0.26562-1.06299-0.80957-1.15918c-0.55176-0.10303-1.06348,0.26562-1.15918,0.80957
		c-0.36912,2.07898-1.35535,3.96999-2.85228,5.46751C35.36903,39.90941,35.82137,40.99741,36.69225,40.99732z"/>
	<path d="M37.39928,23.29297c-0.39062-0.39062-1.02344-0.39014-1.41406-0.00049c-0.39062,0.39062-0.39062,1.02393,0,1.41455
		c1.49707,1.49756,2.4834,3.38867,2.85254,5.46777C38.9237,30.65967,39.34557,31,39.82116,31
		c0.05762,0,0.11621-0.00488,0.17578-0.01562c0.54395-0.09619,0.90625-0.61523,0.80957-1.15918
		C40.36608,27.34082,39.18737,25.08203,37.39928,23.29297z"/>
	<path d="M31.08874,37.2002c-0.44228,0.33098-0.53218,0.95772-0.20042,1.3996c0.3064,0.4081,0.96678,0.52583,1.39964,0.20001
		c2.39551-1.7959,3.71387-4.21094,3.71387-6.7998s-1.31836-5.00391-3.71387-6.7998
		c-0.44141-0.33154-1.06836-0.24121-1.39942,0.19971c-0.33203,0.44189-0.24219,1.06885,0.2002,1.3999
		c1.87793,1.40918,2.91309,3.25586,2.91309,5.2002S32.96667,35.79102,31.08874,37.2002z"/>
</g>
</svg>
