<?xml version="1.0" encoding="UTF-8"?>
<svg xmlns="http://www.w3.org/2000/svg" version="1.1" viewBox="0 0 48 48">
  <!-- Generator: Adobe Illustrator 28.7.1, SVG Export Plug-In . SVG Version: 1.2.0 Build 142)  -->
  <g>
    <g id="Outline">
      <path d="M37,32.07001l-1.12-.31c.69-.72003,1.12-1.69,1.12-2.76001v-1c0-1.47003-.81-2.75-2-3.44V8c0-1.65002-1.34998-3-3-3H10c-1.65002,0-3,1.34998-3,3v25c0,1.64996,1.34998,3,3,3h16.02002c0,.08997-.02002.17999-.02002.26996v5.73004c0,.54999.45001,1,1,1h12c.54999,0,1-.45001,1-1v-5.73004c0-1.97998-1.23999-3.70996-3-4.19995ZM35,28v1c0,1.09998-.90002,2-2,2s-2-.90002-2-2v-1c0-1.10004.90002-2,2-2s2,.89996,2,2ZM26.59998,34H10c-.54999,0-1-.45001-1-1V8c0-.54999.45001-1,1-1h22c.54999,0,1,.45001,1,1v16c-.72998,0-1.40997.20996-2,.56v-14.56c0-.54999-.45001-1-1-1H12c-.54999,0-1,.45001-1,1v21c0,.54999.45001,1,1,1h17.27002l-.27002.07001c-1.03003.28998-1.87,1-2.40002,1.92999ZM24.35999,22.85999l-.84998-.22998c.31-.47003.48999-1.03003.48999-1.63v-1c0-1.65002-1.34998-3-3-3s-3,1.34998-3,3v1c0,.59998.17999,1.15997.48999,1.63l-.84998.22998c-1.56.41998-2.64001,1.88-2.64001,3.56v3.58002h-2V11h16v18c0,.34998.06.67999.14001,1h-2.14001v-3.58002c0-1.67999-1.08002-3.14001-2.64001-3.56ZM21,27c.54999,0,1-.45001,1-1v-1.70001l1.84998.48999c.68005.19,1.15002.85004,1.15002,1.63v3.58002h-8v-3.58002c0-.77997.46997-1.44,1.15002-1.63l1.84998-.48999v1.70001c0,.54999.45001,1,1,1ZM20,21v-1c0-.54999.45001-1,1-1s1,.45001,1,1v1c0,.54999-.45001,1-1,1s-1-.45001-1-1ZM38,41h-10v-4.73004c0-1.08997.63-2.01996,1.53998-2.26996l3.46002-.96002,3.46002.96002c.90997.25,1.53998,1.17999,1.53998,2.26996v4.73004Z"/>
    </g>
  </g>
</svg>