<?xml version="1.0" encoding="UTF-8"?>
<svg xmlns="http://www.w3.org/2000/svg" version="1.1" viewBox="0 0 48 48">
  <!-- Generator: Adobe Illustrator 28.7.1, SVG Export Plug-In . SVG Version: 1.2.0 Build 142)  -->
  <g>
    <g id="Outline">
      <g>
        <circle cx="17" cy="10" r="1"/>
        <circle cx="20" cy="6" r="1"/>
        <circle cx="24" cy="6" r="1"/>
        <circle cx="31" cy="10" r="1"/>
        <circle cx="28" cy="6" r="1"/>
        <path d="M36.23999,34.03998c.63-.46997,1.23999-.98999,1.81-1.58002,5.20001-5.41998,4.96002-13.89996,4.95001-14.25995-.02002-.53003-.46002-.96002-1-.96002-.08002,0-.70001.01001-1.65997.10999-.95001.10004-2.24005.29004-3.69.66003-.43005-2.99005-1.29004-5.12-1.34003-5.22003-.20001-.5-.76001-.73999-1.27002-.56-.12.04999-2.71997,1.03998-5.51996,3.14001-1.70001-3-3.67004-4.95001-3.81-5.09003-.39001-.37-1.01001-.37-1.40002,0-.13.13-1.88,1.87-3.51001,4.57001-2.53998-1.95996-4.82001-2.92999-4.91998-2.96997-.5-.21002-1.08002.01001-1.29999.51001-.04999.10999-1.12,2.5-1.64001,5.78998-3.16998-.89001-5.78003-.91998-5.94-.94-.53998,0-.97998.42999-1,.96002-.01001.35999-.25,8.83997,4.95001,14.25995.57001.59003,1.17999,1.11005,1.81,1.58002-4.47998.89001-6.76001,2.21002-6.76001,3.96002,0,3.95001,11.94,5,19,5s19-1.04999,19-5c0-1.75-2.28003-3.07001-6.76001-3.96002ZM40.97998,19.29999c-.10999,2.31-.75,8-4.37,11.77997-3.02997,3.16003-7.48999,4.29004-10.21997,4.69,1.88-2.37994,4.60999-6.70996,4.60999-11.76996,0-.40002-.02002-.79999-.06-1.20001,3.52002-2.64001,8.04999-3.33002,10.03998-3.5ZM33.79999,14.51001c.29004.89996.67999,2.35999.91003,4.08997-1.37.47998-2.78003,1.13-4.12,2.01001-.28003-1.21002-.68005-2.35999-1.16003-3.41998,1.70001-1.32001,3.37-2.20001,4.37-2.67999ZM24.01001,12.46997c1.52002,1.73999,4.98999,6.29004,4.98999,11.53003,0,5.22998-3.48999,9.78998-5.01001,11.52997-1.52002-1.73999-4.98999-6.28998-4.98999-11.52997,0-5.23004,3.48999-9.79004,5.01001-11.53003ZM15.03003,14.16998c.88995.46002,2.31995,1.28003,3.79999,2.46002-.58002,1.20996-1.09003,2.54999-1.42004,3.97998-1.14996-.75-2.35999-1.34003-3.53998-1.78998.28003-1.98004.79999-3.66003,1.16003-4.65002ZM11.39001,31.07996c-3.62-3.77997-4.26001-9.46997-4.37-11.77997,2,.16998,6.51996.85999,10.03998,3.5-.02997.40002-.06.78998-.06,1.20001,0,5.04999,2.71997,9.39001,4.59003,11.76996-2.72003-.40997-7.18005-1.54999-10.20001-4.69ZM24,41c-10.60999,0-16.71002-1.96002-17-2.98004.08002-.29999,1.58002-1.56,7.34998-2.37994,4.55005,2.25995,9.32001,2.35999,9.63,2.35999h.03003c.26001,0,5.07001-.07001,9.64996-2.35999,5.76001.82996,7.26001,2.07996,7.34003,2.33997-.28998,1.06-6.39001,3.02002-17,3.02002Z"/>
      </g>
    </g>
  </g>
</svg>