<?xml version="1.0" encoding="UTF-8"?>
<svg id="Layer_1" data-name="Layer 1" xmlns="http://www.w3.org/2000/svg" viewBox="0 0 486.13 390.86">
  <defs>
    <style>
      .cls-1 {
        fill: #af6438;
      }

      .cls-1, .cls-2, .cls-3 {
        stroke: #f8f3ee;
        stroke-miterlimit: 10;
      }

      .cls-4, .cls-2 {
        fill: #7f4a2f;
      }

      .cls-3 {
        fill: #d99065;
      }
    </style>
  </defs>
  <g>
    <path class="cls-1" d="M243.89,262.31c.11,1.22.03,3.01,0,4.3-.04,2.02-.07,3.76.76,6.29.64-2.69.67-4.29.65-6.29-.02-1.28-.11-3.07,0-4.29,1.75-17.97,3.66-35.76,8.13-53.77,8.59-34.62,23.61-67.79,46.14-95.02l.78.57c9.01,41.51,8.9,74.3-.91,115.22l-26.74,41.49-28.03,43-30.1-45.86-21.88-34.47c-9.13-39.17-12.48-80.48-2.81-119.92,9.06,10.03,16.19,21.66,22.78,33.94,19.3,35.98,27.5,74.9,31.24,114.81Z"/>
    <path class="cls-3" d="M189.87,113.56c-9.67,39.44-6.32,80.75,2.81,119.92-.94-.93-1.89-2.04-2.87-3.4-23.18-32.13-55.25-59.53-93.33-72.28-4.27-37.25-1.77-74.34,9.19-110.73,24.61,12.88,46.62,28.8,66.65,47.36,6.61,6.13,12.55,12.24,17.55,19.13Z"/>
    <path class="cls-2" d="M98.59,174.86c.04,1.43.25,2.96.7,4.71,7.77,29.98,23.37,56.37,45.36,78.19,25.77,25.56,54.41,42.25,88.14,54.83l-1.6,1.06c-41.47-.55-81.83-11.12-118.01-30.8-47.65-25.78-82.3-70.82-99.46-122.02,29.33-1.15,58.21,3.33,84.87,14.03Z"/>
    <path class="cls-2" d="M255.85,313.59c.38-.8,1.5-1.73,2.71-2.17,24.68-8.92,47.53-20.89,68.26-36.99,34.58-26.87,54.71-57.26,64.45-99.71,26.84-10.69,55.23-15.14,84.48-13.87-17.79,51.64-50.67,96.34-99.72,121.98-35.92,19.39-79.71,31.35-120.17,30.76Z"/>
    <path class="cls-3" d="M299.43,229.32c9.81-40.92,9.93-73.71.91-115.22l-.78-.57c1.93-2.98,4.22-5.54,6.89-8.62,22.16-23.05,47.59-42.57,76.59-57.57,11.3,35.81,14.08,73.11,9.79,110.57-24.58,8.18-46.44,21.61-65.14,39.4-10.75,9.94-19.19,21.11-28.26,32.01Z"/>
    <path class="cls-3" d="M244.69,186.04c-5.67-17.79-12.11-33.88-20.78-49.84-8.15-14.99-17.54-28.58-28.93-41.62,11.02-32.43,27.04-62.03,49.6-88.98,22.01,26.14,38.96,56.18,49.74,88.62-6.05,6.82-11.08,13.32-16.19,20.61-14.84,21.9-25.76,45.52-33.45,71.2Z"/>
    <path class="cls-1" d="M391.26,174.72c-9.74,42.46-29.87,72.84-64.45,99.71-20.72,16.11-43.57,28.07-68.26,36.99-1.21.44-2.33,1.37-2.71,2.17-1.23-.02-2.12-.17-2.8-.42l43.16-57.44c10.65-14.18,20.99-27.66,33.5-40.24,17.71-17.81,38.31-32.06,61.55-40.78Z"/>
    <path class="cls-1" d="M231.2,313.65l1.6-1.06c-33.73-12.58-62.37-29.27-88.14-54.83-21.99-21.81-37.59-48.21-45.36-78.19-.45-1.75-.66-3.28-.7-4.71,18.21,7.31,34.31,17.32,49.22,29.9,15.43,13.02,27.79,28.09,39.94,44.21l48.58,64.44-5.14.23Z"/>
  </g>
  <g>
    <path class="cls-4" d="M4.98,344.09h18.07c9.99,0,13.79,5.21,13.79,10.58,0,4.66-2.47,7.69-5.26,8.97,2.79,1.05,6.45,3.99,6.45,9.43,0,7.08-5.56,12.38-14.36,12.38H4.98v-41.36ZM22.03,360.4c4.25,0,6-1.91,6-4.81s-2.3-4.59-5.75-4.59h-8.52v9.41h8.27ZM13.76,378.54h8.07c4.83,0,7.02-2.02,7.02-5.77,0-3.33-2.15-5.46-7.07-5.46h-8.02v11.23Z"/>
    <path class="cls-4" d="M74.61,367.61h-19.78v10.51h21.82l-1.06,7.33h-29.44v-41.36h29.33v7.33h-20.65v8.86h19.78v7.33Z"/>
    <path class="cls-4" d="M94.07,351.42h-12.57v-7.33h34.04v7.33h-12.52v34.03h-8.95v-34.03Z"/>
    <path class="cls-4" d="M133.48,351.42h-12.57v-7.33h34.04v7.33h-12.52v34.03h-8.95v-34.03Z"/>
    <path class="cls-4" d="M190.1,367.61h-19.78v10.51h21.82l-1.06,7.33h-29.44v-41.36h29.33v7.33h-20.65v8.86h19.78v7.33Z"/>
    <path class="cls-4" d="M208.42,368.9v16.56h-8.74v-41.36h18.18c9.02,0,13.87,4.97,13.87,11.36,0,5.55-3.02,8.56-6.01,9.79,2.05.76,5.14,2.89,5.14,10.29v2.04c0,2.78.02,5.95.59,7.89h-8.48c-.73-1.8-.86-4.9-.86-9.29v-.6c0-4.52-1.14-6.66-7.81-6.66h-5.88ZM208.42,361.78h7.5c4.9,0,6.79-1.86,6.79-5.32s-2.2-5.25-6.57-5.25h-7.71v10.57Z"/>
    <path class="cls-4" d="M256.2,344.09h8.94v16.13h16.64v-16.13h8.94v41.36h-8.94v-17.9h-16.64v17.9h-8.94v-41.36Z"/>
    <path class="cls-4" d="M330.26,367.61h-19.78v10.51h21.82l-1.06,7.33h-29.44v-41.36h29.33v7.33h-20.65v8.86h19.78v7.33Z"/>
    <path class="cls-4" d="M349.09,375.9l-3.23,9.55h-8.79l14.05-41.36h11.23l14.65,41.36h-9.4l-3.4-9.55h-15.11ZM362.28,368.57c-2.94-8.73-4.81-14.31-5.81-18.02h-.06c-1.02,4.08-3.09,10.57-5.44,18.02h11.31Z"/>
    <path class="cls-4" d="M383.46,344.09h8.94v34.03h20.6l-1.02,7.33h-28.53v-41.36Z"/>
    <path class="cls-4" d="M421.78,351.42h-12.57v-7.33h34.04v7.33h-12.52v34.03h-8.95v-34.03Z"/>
    <path class="cls-4" d="M449.94,344.09h8.94v16.13h16.64v-16.13h8.94v41.36h-8.94v-17.9h-16.64v17.9h-8.94v-41.36Z"/>
  </g>
</svg>